<svg width="33" height="33" viewBox="0 0 33 33" fill="none" xmlns="http://www.w3.org/2000/svg">
<g clip-path="url(#clip0_302_1410)">
<path d="M4.77666 32.6087H15.4127V21.0173H11.5914V17.196H15.4127V12.4193C15.4127 9.78545 17.5555 7.64266 20.1894 7.64266H24.966V11.464H21.1447C20.0911 11.464 19.234 12.3211 19.234 13.3747V17.196H24.7936L24.1567 21.0173H19.234V32.6087H27.832C30.4659 32.6087 32.6087 30.4659 32.6087 27.832V4.77666C32.6087 2.14278 30.4659 0 27.832 0H4.77666C2.14278 0 0 2.14278 0 4.77666V27.832C0 30.4659 2.14278 32.6087 4.77666 32.6087ZM1.91067 4.77666C1.91067 3.19638 3.19638 1.91067 4.77666 1.91067H27.832C29.4123 1.91067 30.698 3.19638 30.698 4.77666V27.832C30.698 29.4123 29.4123 30.698 27.832 30.698H21.1447V22.928H25.7753L27.0491 15.2853H21.1447V13.3747H26.8767V5.732H20.1894C16.5019 5.732 13.502 8.73184 13.502 12.4193V15.2853H9.68071V22.928H13.502V30.698H4.77666C3.19638 30.698 1.91067 29.4123 1.91067 27.832V4.77666Z" fill="white"/>
</g>
<defs>
<clipPath id="clip0_302_1410">
<rect width="32.6087" height="32.6087" fill="white"/>
</clipPath>
</defs>
</svg>
