<svg width="33" height="33" viewBox="0 0 33 33" fill="none" xmlns="http://www.w3.org/2000/svg">
<g clip-path="url(#clip0_302_1414)">
<path d="M4.77666 32.6087H27.832C30.4659 32.6087 32.6087 30.4659 32.6087 27.832V4.77666C32.6087 2.14278 30.4659 0 27.832 0H4.77666C2.14278 0 0 2.14278 0 4.77666V27.832C0 30.4659 2.14278 32.6087 4.77666 32.6087ZM1.91067 4.77666C1.91067 3.19638 3.19638 1.91067 4.77666 1.91067H27.832C29.4123 1.91067 30.698 3.19638 30.698 4.77666V27.832C30.698 29.4123 29.4123 30.698 27.832 30.698H4.77666C3.19638 30.698 1.91067 29.4123 1.91067 27.832V4.77666Z" fill="white"/>
<path d="M16.305 24.9023C21.0459 24.9023 24.903 21.0451 24.903 16.3043C24.903 11.5635 21.0459 7.7063 16.305 7.7063C11.5642 7.7063 7.70703 11.5635 7.70703 16.3043C7.70703 21.0451 11.5642 24.9023 16.305 24.9023ZM16.305 9.61696C19.9925 9.61696 22.9924 12.6168 22.9924 16.3043C22.9924 19.9918 19.9925 22.9916 16.305 22.9916C12.6175 22.9916 9.6177 19.9918 9.6177 16.3043C9.6177 12.6168 12.6175 9.61696 16.305 9.61696Z" fill="white"/>
<path d="M25.8582 9.61701C27.4385 9.61701 28.7242 8.33129 28.7242 6.75101C28.7242 5.17073 27.4385 3.88501 25.8582 3.88501C24.2779 3.88501 22.9922 5.17073 22.9922 6.75101C22.9922 8.33129 24.2779 9.61701 25.8582 9.61701ZM25.8582 5.79568C26.3849 5.79568 26.8135 6.22433 26.8135 6.75101C26.8135 7.27769 26.3849 7.70634 25.8582 7.70634C25.3315 7.70634 24.9029 7.27769 24.9029 6.75101C24.9029 6.22433 25.3315 5.79568 25.8582 5.79568Z" fill="white"/>
</g>
<defs>
<clipPath id="clip0_302_1414">
<rect width="32.6087" height="32.6087" fill="white"/>
</clipPath>
</defs>
</svg>
