<svg width="37" height="24" viewBox="0 0 37 24" fill="none" xmlns="http://www.w3.org/2000/svg">
<path fill-rule="evenodd" clip-rule="evenodd" d="M2.05556 24H34.9444C36.075 24 37 23.1 37 22C37 20.9 36.075 20 34.9444 20H2.05556C0.925 20 0 20.9 0 22C0 23.1 0.925 24 2.05556 24ZM2.05556 14H34.9444C36.075 14 37 13.1 37 12C37 10.9 36.075 10 34.9444 10H2.05556C0.925 10 0 10.9 0 12C0 13.1 0.925 14 2.05556 14ZM0 2C0 3.1 0.925 4 2.05556 4H34.9444C36.075 4 37 3.1 37 2C37 0.9 36.075 0 34.9444 0H2.05556C0.925 0 0 0.9 0 2Z" fill="white"/>
</svg>
