<svg width="57" height="58" viewBox="0 0 57 58" fill="none" xmlns="http://www.w3.org/2000/svg">
<path d="M33.3097 17.2338L32.7753 16.165H28.5003H24.2253L23.8691 17.4119C22.8003 20.44 20.6628 23.1119 17.8128 25.0713C6.94722 32.3744 8.9066 47.3369 21.3753 52.1463C26.0066 53.9275 31.1722 53.9275 35.6253 52.1463C48.0941 47.3369 50.0535 32.1963 39.366 24.8932C36.516 22.9338 34.3785 20.44 33.3097 17.2338Z" stroke="#FFB800" stroke-width="3.5" stroke-miterlimit="10" stroke-linecap="round" stroke-linejoin="round"/>
<path d="M18.5254 6.36816L24.5816 16.165" stroke="#FFB800" stroke-width="3.5" stroke-miterlimit="10" stroke-linecap="round" stroke-linejoin="round"/>
<path d="M20.6621 8.32759L22.6215 6.36821C23.6902 5.29946 25.4715 5.29946 26.5402 6.36821C27.609 7.43696 29.3902 7.43696 30.459 6.36821C31.5277 5.29946 33.309 5.29946 34.3777 6.36821L36.3371 8.32759" stroke="#FFB800" stroke-width="3.5" stroke-miterlimit="10" stroke-linecap="round" stroke-linejoin="round"/>
<path d="M38.4752 16.165H32.4189L38.4752 6.36816" stroke="#FFB800" stroke-width="3.5" stroke-miterlimit="10" stroke-linecap="round" stroke-linejoin="round"/>
<path d="M28.5 28.6338V30.415" stroke="#FFB800" stroke-width="3.5" stroke-miterlimit="10" stroke-linecap="round" stroke-linejoin="round"/>
<path d="M28.5 41.1025V42.8838" stroke="#FFB800" stroke-width="3.5" stroke-miterlimit="10" stroke-linecap="round" stroke-linejoin="round"/>
<path d="M30.2812 30.415H27.6094C26.1844 30.415 24.9375 31.6619 24.9375 33.0869C24.9375 34.5119 26.1844 35.7588 27.6094 35.7588H29.3906C30.8156 35.7588 32.0625 37.0057 32.0625 38.4307C32.0625 39.8557 30.8156 41.1025 29.3906 41.1025H26.7188" stroke="#FFB800" stroke-width="3.5" stroke-miterlimit="10" stroke-linecap="round" stroke-linejoin="round"/>
</svg>
