<svg width="61" height="62" viewBox="0 0 61 62" fill="none" xmlns="http://www.w3.org/2000/svg">
<path d="M51.6518 14.9473L40.2276 3.52124C39.4079 2.70156 38.2737 2.23071 37.1128 2.23071H19.8098C17.3812 2.23071 15.4064 4.20559 15.4064 6.63415V9.56978H12.4669C10.0384 9.56978 8.06348 11.5447 8.06348 13.9732V54.6335C8.06348 57.0621 10.0384 59.037 12.4669 59.037H41.1941C43.6227 59.037 45.5975 57.0621 45.5975 54.6335V51.6846H48.5389C50.9674 51.6846 52.9423 49.7097 52.9423 47.2811V18.0602C52.9423 16.8841 52.4848 15.7784 51.6518 14.9473ZM47.0863 15.2313H40.9139C40.3782 15.2313 39.9417 14.7948 39.9417 14.2592V8.08671L47.0863 15.2313ZM42.1663 54.6335C42.1663 55.1692 41.7298 55.6057 41.1941 55.6057H12.4669C11.9313 55.6057 11.4947 55.1692 11.4947 54.6335V13.9732C11.4947 13.4376 11.9313 13.001 12.4669 13.001H15.4064V47.2792C15.4064 49.7078 17.3812 51.6826 19.8098 51.6826H42.1663V54.6335ZM48.5389 48.2533H19.8098C19.2741 48.2533 18.8376 47.8168 18.8376 47.2811V6.63415C18.8376 6.09849 19.2741 5.66196 19.8098 5.66196H36.5104V14.2592C36.5104 16.6877 38.4853 18.6626 40.9139 18.6626H49.5111V47.2792C49.5111 47.8168 49.0745 48.2533 48.5389 48.2533Z" fill="#FFB800"/>
<path d="M44.6525 22.7762H23.6971C22.7497 22.7762 21.9814 23.5445 21.9814 24.4919C21.9814 25.4393 22.7497 26.2075 23.6971 26.2075H44.6544C45.6018 26.2075 46.37 25.4393 46.37 24.4919C46.37 23.5445 45.5999 22.7762 44.6525 22.7762Z" fill="#FFB800"/>
<path d="M23.6971 17.7152H32.0998C33.0472 17.7152 33.8154 16.947 33.8154 15.9996C33.8154 15.0522 33.0472 14.2839 32.0998 14.2839H23.6971C22.7497 14.2839 21.9814 15.0522 21.9814 15.9996C21.9814 16.947 22.7497 17.7152 23.6971 17.7152Z" fill="#FFB800"/>
<path d="M44.6525 31.2687H23.6971C22.7497 31.2687 21.9814 32.0369 21.9814 32.9843C21.9814 33.9317 22.7497 34.6999 23.6971 34.6999H44.6544C45.6018 34.6999 46.37 33.9317 46.37 32.9843C46.37 32.0369 45.5999 31.2687 44.6525 31.2687Z" fill="#FFB800"/>
<path d="M44.6525 39.761H23.6971C22.7497 39.761 21.9814 40.5292 21.9814 41.4766C21.9814 42.424 22.7497 43.1922 23.6971 43.1922H44.6544C45.6018 43.1922 46.37 42.424 46.37 41.4766C46.37 40.5292 45.5999 39.761 44.6525 39.761Z" fill="#FFB800"/>
</svg>
