<svg width="57" height="58" viewBox="0 0 57 58" fill="none" xmlns="http://www.w3.org/2000/svg">
<path d="M46.3125 26.2588C40.4106 26.2588 35.625 31.0444 35.625 36.9463C35.625 42.8482 40.4106 47.6338 46.3125 47.6338C52.2144 47.6338 57 42.8482 57 36.9463C57 31.0444 52.2144 26.2588 46.3125 26.2588ZM45.1986 41.6583L41.1896 37.7704L42.8426 36.115L45.1963 38.3475L50.2217 33.1962L51.8747 34.8492L45.1986 41.6583ZM9.5 35.7588H21.375V38.1338H9.5V35.7588ZM28.5 33.3838H9.5V31.0088H28.5V33.3838ZM32.0672 42.8838H5.9375C5.282 42.8838 4.75 42.3518 4.75 41.6963V26.2588H35.1975C38.0095 23.3375 41.9473 21.5088 46.3125 21.5088C48.4167 21.5088 50.4189 21.9339 52.25 22.6987V14.3838C52.25 11.7618 50.122 9.63379 47.5 9.63379H4.75C2.128 9.63379 0 11.7618 0 14.3838V42.8838C0 45.5058 2.128 47.6338 4.75 47.6338H35.1975C33.8841 46.2658 32.8083 44.6627 32.0672 42.8838ZM4.75 15.5713C4.75 14.9158 5.282 14.3838 5.9375 14.3838H46.3125C46.968 14.3838 47.5 14.9158 47.5 15.5713V19.1338H4.75V15.5713Z" fill="#FFB800"/>
</svg>
