<svg width="34" height="33" viewBox="0 0 34 33" fill="none" xmlns="http://www.w3.org/2000/svg">
<g clip-path="url(#clip0_201_1918)">
<path d="M5.45928 32.6087H16.0953V21.0173H12.274V17.196H16.0953V12.4193C16.0953 9.78545 18.2381 7.64266 20.872 7.64266H25.6486V11.464H21.8273C20.7737 11.464 19.9167 12.3211 19.9167 13.3747V17.196H25.4762L24.8394 21.0173H19.9167V32.6087H28.5146C31.1485 32.6087 33.2913 30.4659 33.2913 27.832V4.77666C33.2913 2.14278 31.1485 0 28.5146 0H5.45928C2.8254 0 0.682617 2.14278 0.682617 4.77666V27.832C0.682617 30.4659 2.8254 32.6087 5.45928 32.6087ZM2.59328 4.77666C2.59328 3.19638 3.879 1.91067 5.45928 1.91067H28.5146C30.0949 1.91067 31.3806 3.19638 31.3806 4.77666V27.832C31.3806 29.4123 30.0949 30.698 28.5146 30.698H21.8273V22.928H26.4579L27.7317 15.2853H21.8273V13.3747H27.5593V5.732H20.872C17.1845 5.732 14.1847 8.73184 14.1847 12.4193V15.2853H10.3633V22.928H14.1847V30.698H5.45928C3.879 30.698 2.59328 29.4123 2.59328 27.832V4.77666Z" fill="white"/>
</g>
<defs>
<clipPath id="clip0_201_1918">
<rect width="32.6087" height="32.6087" fill="white" transform="translate(0.682617)"/>
</clipPath>
</defs>
</svg>
