<svg width="34" height="33" viewBox="0 0 34 33" fill="none" xmlns="http://www.w3.org/2000/svg">
<g clip-path="url(#clip0_201_1922)">
<path d="M5.45928 32.6087H28.5146C31.1485 32.6087 33.2913 30.4659 33.2913 27.832V4.77666C33.2913 2.14278 31.1485 0 28.5146 0H5.45928C2.8254 0 0.682617 2.14278 0.682617 4.77666V27.832C0.682617 30.4659 2.8254 32.6087 5.45928 32.6087ZM2.59328 4.77666C2.59328 3.19638 3.879 1.91067 5.45928 1.91067H28.5146C30.0949 1.91067 31.3806 3.19638 31.3806 4.77666V27.832C31.3806 29.4123 30.0949 30.698 28.5146 30.698H5.45928C3.879 30.698 2.59328 29.4123 2.59328 27.832V4.77666Z" fill="white"/>
<path d="M16.9867 24.9025C21.7275 24.9025 25.5847 21.0454 25.5847 16.3045C25.5847 11.5637 21.7275 7.70654 16.9867 7.70654C12.2458 7.70654 8.38867 11.5637 8.38867 16.3045C8.38867 21.0454 12.2458 24.9025 16.9867 24.9025ZM16.9867 9.61721C20.6742 9.61721 23.674 12.6171 23.674 16.3045C23.674 19.992 20.6742 22.9919 16.9867 22.9919C13.2992 22.9919 10.2993 19.992 10.2993 16.3045C10.2993 12.6171 13.2992 9.61721 16.9867 9.61721Z" fill="white"/>
<path d="M26.5398 9.61725C28.1201 9.61725 29.4058 8.33153 29.4058 6.75125C29.4058 5.17097 28.1201 3.88525 26.5398 3.88525C24.9595 3.88525 23.6738 5.17097 23.6738 6.75125C23.6738 8.33153 24.9595 9.61725 26.5398 9.61725ZM26.5398 5.79592C27.0665 5.79592 27.4952 6.22458 27.4952 6.75125C27.4952 7.27793 27.0665 7.70659 26.5398 7.70659C26.0131 7.70659 25.5845 7.27793 25.5845 6.75125C25.5845 6.22458 26.0131 5.79592 26.5398 5.79592Z" fill="white"/>
</g>
<defs>
<clipPath id="clip0_201_1922">
<rect width="32.6087" height="32.6087" fill="white" transform="translate(0.682617)"/>
</clipPath>
</defs>
</svg>
