<svg width="630" height="379" viewBox="0 0 630 379" fill="none" xmlns="http://www.w3.org/2000/svg">
<g clip-path="url(#clip0_201_1330)">
<path d="M172.579 328.505C170.331 326.452 167.964 324.454 165.88 322.294C165.485 321.795 164.918 321.429 164.269 321.254C163.62 321.078 162.925 321.102 162.293 321.322C158.185 322.118 156.562 320.903 156.339 317.163C155.639 306.052 155.029 294.926 154.255 283.815C153.749 276.402 152.886 268.963 152.454 261.605C152.29 258.904 150.608 257.77 148.256 257.014C146.841 256.477 145.325 256.188 143.791 256.164C139.414 256.434 135.559 255.165 131.585 253.774C130.46 253.27 129.236 252.973 127.984 252.902C126.732 252.83 125.477 252.984 124.291 253.355C123.365 253.542 122.402 253.517 121.49 253.281C120.578 253.045 119.745 252.607 119.066 252.005C117.176 249.683 114.601 249.399 112.026 248.495C110.984 248.117 110.106 247.334 109.049 247.023C108.223 246.862 107.365 246.904 106.563 247.145C103.586 247.833 100.817 248.819 97.8699 249.291C94.5925 249.756 91.5269 251.052 89.0281 253.031C87.3461 254.381 85.8576 255.88 84.2649 257.284C83.486 258.06 82.5332 258.676 81.4703 259.091C80.4075 259.505 79.2591 259.709 78.1024 259.688C77.2556 259.715 76.418 259.856 75.6166 260.106C73.4136 260.66 73.5476 261.794 74.5598 263.319C76.3013 265.939 77.8345 268.72 79.5909 271.285C80.4543 272.635 81.7791 273.581 82.568 274.863C83.3569 276.146 85.1133 278.306 84.6073 279.197C83.4909 281.128 80.9306 280.331 78.8765 279.926C77.0902 279.575 76.2715 278.914 77.3879 277.118C77.7452 276.524 77.9238 275.174 75.7803 275.768C71.6125 276.861 67.2958 277.469 63.0535 278.333C62.5921 278.428 62.2199 278.887 61.6692 279.278C61.9967 279.67 62.2051 280.142 62.5772 280.318C63.6072 280.733 64.4391 281.47 64.9223 282.393C65.4056 283.317 65.5083 284.367 65.2119 285.354C64.8546 287.595 66.2538 288.986 68.8736 289.067C71.8507 289.161 74.7086 288.959 77.5219 290.241C78.1769 290.552 79.4868 289.539 80.4989 289.337C81.533 289.19 82.5782 289.118 83.6248 289.121C83.476 289.89 83.3271 290.66 83.1634 291.43C83.0422 291.711 82.9621 292.006 82.9252 292.307C82.9252 297.397 78.7871 298.018 74.8128 298.14C68.4717 298.329 64.0955 301.502 60.2402 305.417C57.9926 307.699 58.1712 308.306 60.5975 310.44C61.9989 311.453 63.4928 312.356 65.063 313.14C65.8855 313.643 66.5724 314.307 67.0725 315.084C61.5203 314.017 61.312 313.99 59.5555 314.679C60.5975 316.029 61.5055 317.46 62.6516 318.729C64.4825 320.687 65.8371 320.782 68.0252 319.283C68.7843 318.757 69.3946 318.054 70.1091 317.46C70.8236 316.866 71.285 316.596 72.5354 315.705C71.8804 319.756 71.285 323.32 70.8087 326.857C70.6747 327.883 70.511 329.382 71.1213 329.868C71.6344 330.097 72.2037 330.202 72.7746 330.174C73.3454 330.145 73.8987 329.984 74.3811 329.706C74.6132 329.449 74.9017 329.239 75.2282 329.089C75.5547 328.939 75.9122 328.853 76.2777 328.835C76.6432 328.817 77.0088 328.868 77.3512 328.986C77.6936 329.103 78.0052 329.284 78.2662 329.517C79.8249 330.561 81.6484 331.232 83.5683 331.468C85.4882 331.704 87.4427 331.497 89.2514 330.867C86.4679 335.35 83.6844 339.495 78.8318 342.452C72.4907 346.34 65.2565 348.001 58.201 350.174C54.9952 351.117 51.8952 352.333 48.9424 353.806C57.3823 354.508 64.9291 351.363 72.6247 349.229C83.7141 346.178 101.204 336.565 105.372 331.785L102.737 330.152C103.169 328.356 103.601 326.479 106.548 326.56C107.024 326.56 107.59 325.656 108.037 325.102C109.02 323.573 110.088 322.091 111.237 320.66C113.976 317.69 116.685 315.813 123.145 317.325C121.656 318.054 120.57 318.959 119.587 318.918C118.621 318.869 117.663 319.105 116.858 319.592C116.052 320.079 115.443 320.791 115.122 321.619C114.066 323.325 113.136 325.093 112.338 326.911C111.505 329.004 112.591 330.165 114.988 329.517C117.428 328.735 119.784 327.755 122.029 326.587C122.817 326.223 123.368 325.386 124.157 325.089C128.176 323.604 128.489 323.374 127.477 319.688C127.164 318.554 127.179 317.811 128.355 317.96C130.781 318.284 133.133 318.973 135.797 319.567C134.309 322.388 129.977 323.077 129.724 326.317L130.424 326.817C131.987 325.723 133.535 324.603 135.142 323.549C136.11 322.855 137.289 322.446 138.521 322.376C139.752 322.306 140.978 322.579 142.034 323.158C143.864 324.137 146.038 324.441 148.107 324.009C149.679 323.719 151.307 323.812 152.826 324.279C154.276 324.839 155.84 325.114 157.415 325.086C158.99 325.058 160.541 324.728 161.965 324.117C164.168 325.818 166.044 327.33 167.994 328.761C169.482 329.868 170.971 330.948 172.638 331.92C174.603 333.082 176.657 334.027 178.711 331.826L175.184 329.976C175.184 329.679 175.317 329.396 175.377 329.099C176.624 329.106 177.862 329.279 179.054 329.612C180.265 330.283 181.393 331.07 182.418 331.961C182.656 331.799 182.894 331.637 183.147 331.488L181.406 327.438L181.748 326.938C182.429 327.18 183.074 327.497 183.668 327.884C185.307 329.054 186.769 330.416 188.015 331.934C190.454 335.732 193.969 338.87 198.196 341.02C200.146 341.979 201.173 343.1 200.116 345.233C199.818 345.827 200.116 346.705 200.22 347.285L205.088 344.922C205.728 346.408 206.294 347.92 207.008 349.378C207.391 349.97 207.846 350.523 208.363 351.025C208.826 350.479 209.197 349.874 209.464 349.229C210.253 345.854 208.928 343.356 205.505 342.06C201.426 340.542 197.84 338.107 195.085 334.985C191.761 331.531 188.175 328.292 184.353 325.291C182.641 323.86 180.557 322.807 177.982 323.941C176.851 324.414 175.704 324.468 175.481 326.088C175.362 326.992 173.844 327.735 172.951 328.545" stroke="black" stroke-width="2" stroke-linejoin="bevel"/>
<path d="M197.467 350.228L200.771 352.848C201.039 348.797 196.514 344.639 192.688 345.071C192.688 345.354 192.688 345.854 192.763 345.894C193.278 346.007 193.762 346.213 194.186 346.5C194.61 346.787 194.966 347.149 195.232 347.564C195.498 347.979 195.668 348.439 195.732 348.915C195.796 349.392 195.754 349.875 195.606 350.336C195.597 350.812 195.736 351.28 196.008 351.687C197.065 353.509 197.02 351.389 197.496 351.322" stroke="black" stroke-width="2" stroke-linejoin="bevel"/>
<path d="M110.373 336.16C109.049 337.267 106.444 337.834 108.379 340.318C108.557 340.548 107.724 341.965 107.322 341.979C104.524 342.073 103.69 346.191 100.266 344.747C100.013 344.605 99.7867 344.428 99.5966 344.22C98.51 343.208 97.0512 342.114 98.1974 340.683C98.5546 340.251 100.445 340.831 101.904 340.966C102.276 340.251 102.291 339.157 104.166 338.59C106.042 338.023 107.143 335.701 108.632 333.959L110.612 335.849" stroke="black" stroke-width="2" stroke-linejoin="bevel"/>
<path d="M186.199 333.716C187.07 334.776 187.865 335.885 188.58 337.037C188.744 337.334 188.074 337.996 187.806 338.482C187.464 338.131 186.943 337.807 186.809 337.402C186.303 335.822 185.916 334.215 185.484 332.622" stroke="black" stroke-width="2" stroke-linejoin="bevel"/>
<path d="M2.00932 355.656C5.4478 354.306 7.96339 355.723 10.0324 358.653C9.20862 358.654 8.38645 358.587 7.57637 358.451C5.09055 357.803 2.6345 357.101 0.133789 356.331" stroke="black" stroke-width="2" stroke-linejoin="bevel"/>
<path d="M191.959 339.387C192.364 339.464 192.743 339.626 193.066 339.861C193.389 340.096 193.647 340.396 193.818 340.738C193.989 341.08 194.069 341.454 194.051 341.829C194.033 342.204 193.918 342.57 193.715 342.897C191.929 342.209 190.292 341.547 191.646 339.4" stroke="black" stroke-width="2" stroke-linejoin="bevel"/>
<path d="M15.0046 356.615C15.0046 356.709 15.0046 356.885 15.0046 356.885C16.1657 357.02 17.3267 357.155 18.5026 357.222C18.6166 356.951 18.7014 356.671 18.7557 356.385H14.96" stroke="black" stroke-width="2" stroke-linejoin="bevel"/>
<path d="M57.6201 317.217C55.4319 314.584 54.0327 314.436 50.624 316.488C53.735 319.013 54.5239 319.188 57.3224 317.514" stroke="black" stroke-width="2" stroke-linejoin="bevel"/>
<path d="M35.6201 358.262C36.9868 358.16 38.3443 357.975 39.6838 357.708C42.0803 357.114 41.991 356.061 39.6838 354.603L37.1086 357.6" stroke="black" stroke-width="2" stroke-linejoin="bevel"/>
<path d="M43.8661 288.554C42.1543 289.458 42.3776 290.525 43.7768 291.402C45.8992 292.797 48.1002 294.09 50.3709 295.277C50.8622 295.52 51.8595 295.142 52.4846 294.859C52.5769 294.641 52.6167 294.408 52.6013 294.175C52.5859 293.942 52.5156 293.715 52.3953 293.509C49.4183 292.051 47.9298 288.81 44.1787 288.513" stroke="black" stroke-width="2" stroke-linejoin="bevel"/>
<path d="M182.12 333.959C181.615 334.057 181.117 334.188 180.632 334.351C179.798 334.648 178.994 334.999 178.176 335.336C178.595 336.106 179.093 336.839 179.664 337.523C181.85 339.788 184.181 341.934 186.645 343.95C186.273 340.291 185.678 336.713 182.537 333.946" stroke="black" stroke-width="2" stroke-linejoin="bevel"/>
<path d="M284.099 356.669C282.744 355.967 281.732 356.493 280.735 356.534C279.499 356.534 278.457 356.385 278.249 355.075C278.04 353.766 279.172 353.725 280.05 353.469C280.75 353.199 281.512 353.085 282.27 353.136C283.029 353.188 283.763 353.404 284.411 353.766C285.351 354.325 286.488 354.542 287.597 354.373C288.371 354.215 289.181 354.291 289.904 354.589C291.572 355.428 293.483 355.786 295.382 355.615C296.691 355.615 298.076 355.886 298.284 357.303C298.493 358.721 297.153 359.328 296.051 359.45C294.012 359.666 292.94 361.489 290.946 361.624C289.963 361.691 288.758 362.447 288.088 361.475C287.418 360.503 288.594 359.936 289.115 359.234C289.636 358.532 290.246 358.194 289.383 357.6C289.086 357.352 288.705 357.202 288.302 357.175C287.9 357.148 287.499 357.245 287.165 357.452C286.599 357.83 286.689 358.464 286.555 359.018C286.123 360.692 284.515 360.436 283.265 360.368C282.015 360.301 281.777 359.342 281.777 358.451C281.717 357.249 283.057 357.155 284.099 356.669Z" stroke="black" stroke-width="2" stroke-linejoin="bevel"/>
<path d="M303.732 377.744C302.125 377.974 301.857 376.907 301.678 375.895C301.58 374.177 300.815 372.546 299.52 371.291C298.978 370.84 298.625 370.233 298.522 369.573C298.418 368.913 298.571 368.241 298.954 367.672C299.428 367.056 299.732 366.346 299.841 365.601C299.949 364.857 299.86 364.099 299.579 363.392C299.401 362.69 299.192 361.867 300.07 361.448C300.949 361.029 301.365 361.732 301.931 362.11C303.003 362.839 303.926 364.067 305.518 362.771C305.712 362.609 306.531 363.041 307.007 363.257C309.091 364.175 312.44 363.136 312.961 366.619C312.961 367.065 315.759 367.038 316.027 368.442C316.295 369.846 314.33 370.116 313.452 370.953C313.229 371.156 312.946 371.412 312.931 371.669C312.753 373.721 311.085 373.896 309.374 374.072C308.57 374.153 307.885 374.247 307.974 375.422C307.974 378.77 307.081 379.243 303.598 377.771" stroke="black" stroke-width="2" stroke-linejoin="bevel"/>
<path d="M272.681 355.345C270.463 356.088 269.005 355.872 267.71 354.508C266.846 353.617 266.43 352.969 267.427 351.943C268.424 350.917 269.302 350.755 270.404 351.673C271.118 352.254 271.892 352.699 272.667 353.266C273.441 353.833 274.557 353.995 274.289 354.913C274.021 355.832 272.89 355.21 272.681 355.345Z" stroke="black" stroke-width="2" stroke-linejoin="bevel"/>
<path d="M249.371 352.632C248.151 352.294 246.394 352.753 246.305 350.755C246.255 350.396 246.292 350.032 246.412 349.687C246.533 349.342 246.735 349.025 247.004 348.758C247.273 348.491 247.602 348.28 247.97 348.14C248.338 348 248.734 347.934 249.133 347.947C250.383 347.866 252.11 347.947 252.11 349.567C252.16 350.296 251.906 351.016 251.399 351.583C250.891 352.151 250.168 352.525 249.371 352.632V352.632Z" stroke="black" stroke-width="2" stroke-linejoin="bevel"/>
<path d="M241.72 350.93C243.343 350.782 243.923 352.645 243.298 354.022C243.179 354.338 242.928 354.598 242.6 354.747C242.271 354.896 241.891 354.922 241.542 354.819C240.559 354.508 241.229 353.847 241.452 353.469C241.839 352.645 241.214 351.092 241.72 350.93Z" stroke="black" stroke-width="2" stroke-linejoin="bevel"/>
<path d="M418.08 272.095H428.872C428.872 272.095 428.752 273.877 428.693 274.796C430.434 276.038 430.702 275.93 433.412 276.578C435.734 274.364 438.338 274.809 442.819 273.972C442.73 273.324 442.596 272.068 442.372 272.068H446.585C448.207 272.068 450.44 274.634 451.691 275.228C452.861 274.447 453.768 273.385 454.31 272.163C454.206 272.028 454.057 272.163 453.938 272.163C451.958 270.583 448.743 270.043 447.984 267.464C448.773 265.399 449.473 265.817 451.497 264.993C452.048 263.643 451.765 263.454 451.05 262.496L445.171 263.036L444.918 261.159L442.968 261.011L442.283 262.253H437.624C436.804 261.453 436.126 260.542 435.614 259.552C436.589 259.287 437.548 258.976 438.487 258.621C440.556 257.865 440.08 257.73 441.628 258.621C449.324 262.806 449.77 256.785 453.76 256.326C459.803 255.623 460.413 257.986 463.777 253.747L463.926 253.571L464.075 253.369L464.224 253.166C466.71 255.313 466.65 256.299 471.22 255.232C473.572 254.665 472.574 254.071 473.348 252.532L487.966 252.721C491.285 252.964 492.282 254.071 494.515 256.056C498.683 259.741 501.675 255.664 505.173 254.408V252.167L512.08 251.83L516.545 257.406C518.927 259.485 521.16 259.485 523.988 260.97C528.677 263.427 526.816 268.207 527.054 272.136C527.352 273.604 527.852 275.033 528.543 276.389C529.748 275.795 528.632 275.808 530.031 274.958C532.16 276.51 531.728 277.658 530.284 279.724L532.13 282.343C534.913 288.189 537.027 282.451 540.704 287.824C542.966 291.146 545.169 294.13 547.893 298.059C548.191 298.059 548.474 298.383 548.786 298.693C551.123 301.015 552.299 300.543 555.291 302.028C554.651 303.959 555.202 302.217 554.413 302.879C553.907 303.284 554.19 302.217 553.416 303.905C555.52 304.082 557.641 303.894 559.668 303.351C560.965 301.742 561.97 299.956 562.645 298.059C564.004 292.451 563.485 286.602 561.156 281.263C559.846 277.82 558.268 273.715 556.556 272.136C554.745 268.794 552.691 265.564 550.409 262.469C550.632 262.334 550.245 261.807 551.897 262.118C552.225 262.185 552.284 262.239 552.284 262.28C552.284 262.32 552.478 262.415 552.925 262.185C548.459 256.636 542.922 253.288 540.6 245.43C540.213 245.43 539.721 242.946 539.528 241.379C537.637 241.541 537.265 242.216 537.265 244.863V244.66C537.37 244.66 537.265 244.984 537.265 245.065V245.389C534.035 242.473 538.56 240.151 538.754 239.746C538.565 237.472 538.182 235.215 537.608 232.995C536.983 230.295 539.587 225.785 540.585 217.941C540.934 216.864 541.08 215.741 541.016 214.619C542.301 214.145 543.516 213.528 544.634 212.783C550.707 208.733 557.033 199.093 560.099 192.032C560.248 192.032 560.397 192.032 560.531 191.707C561.871 188.697 565.458 190.141 567.795 188.332C570.132 186.523 568.837 182.378 570.697 180.825C573.711 178.447 576.966 176.331 580.417 174.507C582.085 173.602 581.772 172.778 581.102 171.199C579.137 171.806 577.693 174.507 574.999 173.494C575.565 172.387 576.056 172.562 577.693 172.414L578.616 168.255L575.788 168.35C576.026 167.864 576.294 166.905 576.592 166.905C576.89 166.905 577.679 165.785 578.274 164.84C584.064 167.432 587.205 160.884 585.255 158.089C584.541 157.103 584.913 157.454 583.692 157.049L582.71 159.547C581.241 159.269 579.745 159.129 578.244 159.128C576.041 159.371 576.622 160.181 574.076 160.276L573.794 156.698C575.186 157.031 576.664 156.887 577.946 156.293C579.264 155.912 580.557 155.461 581.817 154.943C579.629 150.798 581.906 151.203 580.194 148.908C578.155 146.207 578.036 146.842 574.24 147.126C573.142 147.358 571.986 147.188 571.025 146.653C572.379 145.303 572.082 145.586 574.359 146.072C573.704 144.169 572.32 144.574 571.605 143.372C572.141 142.292 571.427 143.251 572.454 142.414C572.692 142.225 573.109 142.265 573.481 141.968C573.461 141.904 573.418 141.848 573.358 141.809C573.299 141.769 573.227 141.749 573.153 141.752C572.201 139.565 570.102 139.295 569.134 138.336C570.697 137.823 571.025 138.498 572.826 138.525C572.826 133.759 571.084 135.825 569.358 133.489C570.37 132.017 570.043 132.814 571.576 132.058C570.454 131.141 569.455 130.108 568.599 128.98C567.869 127.71 567.289 126.117 566.634 124.781C564.862 121.216 566.128 122.08 567.616 118.786C568.346 117.152 567.72 117.436 569.105 117.044C569.894 117.476 569.611 117.139 569.67 117.962C569.789 119.313 568.822 121.648 568.867 122.809C568.956 125.105 571.62 124.092 571.189 128.21C576.264 128.21 573.6 133.354 578.914 133.611C578.78 136.081 577.798 137.513 577.783 140.591C578.431 140.251 578.992 139.79 579.428 139.238C579.865 138.687 580.166 138.057 580.313 137.391C582.159 132.909 581.906 127.305 581.534 122.539C580.716 122.361 579.932 122.07 579.212 121.675C578.453 121.23 578.721 121.27 578.185 120.906L577.053 120.474C575.565 119.623 575.565 117.706 575.446 116.248H575.952C577.842 116.612 578.706 116.855 581.177 117.314C581.533 118.413 581.639 119.566 581.489 120.703C582.71 120.069 583.796 117.53 584.704 115.964C586.669 110.469 587.681 102.719 587.041 101.207C584.63 100.748 583.454 101.356 583.365 98.5067C583.372 96.8818 583.974 95.3051 585.077 94.0243C586.372 92.2691 587.756 89.9738 589.334 89.9738C590.182 87.6246 591.075 88.3131 592.073 87.6381C594.685 85.8131 597.419 84.1358 600.259 82.6155C607.702 78.7811 603.534 80.6038 606.511 75.6487C607.255 76.259 608.132 76.7192 609.086 76.9989L611.394 74.6901C615.442 71.0042 618.122 71.8953 619.208 67.8449C617.437 67.2508 616.082 65.9277 614.162 65.7656C614.46 67.7369 615.651 67.1158 616.246 70.2211C614.715 71.1992 612.94 71.8163 611.081 72.0168C609.592 69.3841 604.219 66.4407 605.767 64.0915C605.96 62.5253 606.258 62.7413 606.72 62.2688C604.174 60.4056 602.552 59.2849 604.249 55.113C606.407 49.8204 614.088 41.841 615.011 37.5611C615.085 37.21 615.1 38.2226 615.085 35.8734C615.011 35.8734 613.686 35.3603 615.204 33.7537C618.27 34.8743 614.921 35.7924 618.672 35.7924L619.67 33.3216L622.111 33.1191C622.364 30.1083 625.862 29.0011 627.559 27.0164C628.214 26.2468 629.449 25.4097 629.449 24.6807V23.3305C627.313 22.1629 625.339 20.7668 623.57 19.1721C621.233 17.2953 621.292 15.6482 616.975 15.0541C616.797 13.704 616.216 12.3538 615.666 9.93704C614.534 8.37087 612.822 4.17191 611.394 2.38971C610.725 1.59326 609.754 1.04975 608.669 0.864049C603.951 -0.567108 603.757 3.01078 600.2 5.15752L596.479 3.25381C595.719 5.54906 595.139 8.35737 594.677 10.0045C593.626 17.3691 593.109 24.7884 593.129 32.2145C589.81 33.1191 588.575 34.2532 588.47 35.8194C588.366 37.3855 588.47 37.3451 588.47 37.4531V37.6286C583.275 37.6286 579.822 41.166 575.848 42.4081C573.555 43.1237 571.546 44.0013 569.462 44.7304C564.267 46.5666 559.414 45.7565 553.892 53.8708C551.942 56.7737 553.803 58.7989 552.151 60.0275C549.992 61.6612 549.858 60.1625 548.786 64.078C548.697 64.078 548.623 64.0105 548.519 64.2535C550.007 65.4686 549.754 64.9826 552.329 64.9556L553.669 71.5713C552.582 72.3814 549.322 73.313 547.566 74.4606C541.612 78.349 545.482 76.3508 541.82 77.1609C539.394 77.728 537.072 78.5111 534.482 79.0916C532.087 79.4923 529.754 80.1495 527.53 81.0493C528.379 83.1016 530.329 85.0998 531.401 87.6381C530.656 88.1781 529.823 87.6381 528.945 89.9603C525.819 91.5265 522.068 95.8199 519.671 98.1692C518.361 99.4518 517.275 100.343 515.92 101.558C513.419 103.932 510.639 106.051 507.629 107.877C505.992 108.673 504.027 109.051 502.27 109.929C500.514 110.807 499.085 111.806 497.507 112.629C494.872 111.9 492.818 110.928 489.782 110.213C490.109 108.018 490.718 105.865 491.598 103.799C492.297 101.707 492.297 99.5059 492.982 97.5752C493.548 96.8461 495.587 97.1431 496.525 96.7246C497.046 94.9829 495.393 91.4725 494.277 89.9738C494.098 89.9738 493.935 89.0152 493.801 88.7722C493.012 87.4895 492.416 86.2609 491.702 85.0863C491.332 84.5026 491.013 83.8931 490.749 83.2636L489.841 81.4139C483.321 82.359 481.669 90.8649 480.21 86.4769C479.451 84.1817 487.073 78.2545 483.441 73.2725C481.58 70.6937 481.401 72.3139 482.22 68.4659C479.332 67.8719 475.239 66.6702 472.306 65.7656C471.398 65.4956 466.144 62.7143 464.864 67.8989C465.379 68.1748 465.813 68.5592 466.129 69.0195C465.206 69.8836 465.638 70.1401 462.825 70.8152V75.7297C461.217 75.7297 462.17 74.8117 460.741 72.7459C458.21 73.7855 460.235 75.5137 456.632 76.1753C456.26 79.8882 455.352 85.1403 455.293 88.6912C455.298 89.1102 455.358 89.5271 455.471 89.9333C456.294 91.0305 456.945 92.2254 457.406 93.4842C458.166 95.2108 458.754 96.9956 459.163 98.8173C460.949 106.257 459.907 110.712 455.055 116.18H449.279C447.701 112.886 446.659 111.941 446.63 109.024C446.63 105.244 446.897 106.014 445.394 103.124C444.588 101.635 444.118 100.015 444.01 98.3582C443.789 95.5264 444.106 92.6812 444.948 89.9468C446.424 85.3485 447.509 80.6542 448.192 75.9053C445.349 77.0799 443.935 79.4427 442.611 81.8594C441.911 83.2096 442.164 83.4526 440.795 83.6551C439.232 81.1303 446.272 71.5038 446.585 67.0078C448.773 68.0474 448.326 67.6019 450.902 66.5757C450.902 67.1158 450.574 67.5884 450.529 67.9259C450.529 68.79 450.306 68.3714 450.827 68.898L455.68 65.4146C456.781 64.645 457.406 63.997 457.913 63.997C458.384 62.8982 459.17 61.9335 460.19 61.2022L467.216 62.8088C468.347 60.3786 469.047 60.6621 471.056 60.9321C474.435 61.3912 471.473 58.0968 468.942 56.4091C467.748 57.0556 466.421 57.4737 465.042 57.6378C462.75 57.8538 463.881 57.4082 462.065 56.4766C462.088 55.4617 461.932 54.4499 461.604 53.4793C460.547 53.1958 460.205 54.3299 458.3 54.8295C456.85 55.0145 455.446 55.4208 454.147 56.0311C452.569 57.0032 449.994 59.825 448.192 60.3111C445.081 61.1752 442.238 58.8394 440.393 57.7728C437.044 55.8961 436.463 55.6801 432.34 56.8277C431.759 51.8321 434.855 51.8186 436.478 48.8483C432.518 49.8609 429.914 52.1832 427.175 54.4919C424.436 56.8007 422.322 59.447 418.601 61.0401C414.879 62.6333 412.959 62.3903 412.572 64.0105C412.572 64.0105 412.483 64.0105 412.483 64.402H410.176C410.176 64.4965 410.101 64.51 410.072 64.591C410.042 64.672 410.072 64.7396 409.967 64.8341C409.863 64.9286 409.878 65.1041 409.848 65.2121C409.855 65.2704 409.855 65.3293 409.848 65.3876C409.826 65.7879 409.826 66.189 409.848 66.5892L408.003 67.0348C408.003 65.1311 407.854 63.97 408.806 63.97C409.059 62.4038 409.387 63.1734 409.833 62.9843L409.685 59.6765C407.229 59.2714 403.984 62.0527 400.218 61.4857C399.324 61.3372 399.756 61.4857 399.235 61.0671C399.637 59.6495 399.012 61.2292 400.456 60.0545C400.814 59.7038 401.142 59.3292 401.438 58.9339C401.974 58.2183 402.689 57.2597 403.269 56.5847C404.507 54.9685 405.865 53.4303 407.333 51.9807C408.735 50.4838 410.363 49.1746 412.17 48.0922C415.52 46.3775 414.909 47.8492 417.603 44.8384C415.862 43.6772 411.768 43.7582 409.312 43.8257C406.038 43.9068 404.4 44.7168 401.647 45.1759C399.756 43.2587 397.836 42.7051 394.799 41.949C394.174 42.6241 394.07 43.1777 393.236 43.4342C392.701 42.7591 392.805 42.2596 392.403 41.2875C392.299 41.031 392.075 40.5989 391.941 40.3559L391.554 39.6808C391.554 39.5593 391.45 39.5323 391.406 39.4513C384.29 40.8014 380.48 38.4252 373.112 38.8032C372.577 37.7514 372.249 36.6227 372.144 35.4683H365.505C365.371 35.4683 365.252 36.3459 365.103 36.3864C362.504 37.1634 359.788 37.5733 357.051 37.6016C350.263 37.2505 346.631 37.8716 340.186 38.3712C326.64 39.4513 313.958 38.4387 299.237 37.5881C298.373 37.3855 293.878 38.3036 290.603 36.0489C290.291 36.0489 290.112 36.0489 289.799 36.0489C285.438 35.8869 281.479 36.0489 277.296 36.0489C275.807 36.0489 274.423 36.6025 272.934 36.6025H270.598C270.598 36.6025 270.032 36.2919 270.181 36.6025L269.481 35.7114V35.4953H262.842C259.021 35.3633 255.218 34.9525 251.47 34.2667V34.6448C248.18 34.1587 244.965 33.8077 241.914 33.2946C241.765 33.2946 241.616 33.4836 241.467 33.4566C230.869 31.4584 219.675 30.3783 208.72 28.7581V28.4341C207.112 28.2045 205.52 27.1514 203.927 27.1514H201.873L201.754 27.2864C200.265 27.0299 198.777 26.5034 197.288 26.2198L197.184 26.4493C196.708 26.4493 196.216 26.5169 195.695 26.4493C193.433 25.9903 190.902 25.2747 188.714 24.9507C186.169 24.5861 183.489 24.5321 180.974 24.0596C178.741 23.641 176.598 22.7094 173.918 22.2099C173.174 22.0614 172.43 21.9669 171.611 21.8453L170.123 21.6158C166.441 21.2014 162.795 20.5563 159.212 19.6851C156.905 19.037 155.267 18.1729 152.871 17.4844C151.159 16.9848 144.297 14.8921 137.985 13.0559V13.2584C136.97 12.8748 135.896 12.6335 134.8 12.5428H131.689L131.54 11.8137H131.674C131.674 11.8137 131.585 11.5437 131.54 11.5302L131.362 9.99105H127.104L126.97 10.9497C127.358 11.4295 127.678 11.9511 127.923 12.5023C128.361 13.6576 128.626 14.861 128.712 16.0802C128.831 17.1063 128.906 18.1189 128.95 19.1586C129.04 20.8057 129.069 22.4664 129.203 24.1541C125.378 24.8427 126.062 26.9759 126.226 29.9732C124.292 31.0128 122.186 31.7649 119.989 32.201C119.558 30.9589 119.2 31.1344 119.245 29.5007L122.922 29.6627C123.338 28.8121 124.217 28.029 124.261 27.2864C124.294 27.0434 124.253 26.7968 124.143 26.5733C124.033 26.3497 123.857 26.1576 123.636 26.0173C123.175 25.6393 123.502 25.9363 122.937 25.5987L122.445 25.3287C122.746 24.0954 123.562 23.0159 124.723 22.3179L125.14 21.9939L124.857 21.8723C124.47 21.7103 124.023 21.5078 123.517 21.2648C119.23 19.2261 111.371 14.7436 109.376 14.0145C108.723 14.4257 108.101 14.8768 107.516 15.3646C107.709 18.2405 108.23 21.1163 108.498 24.3161C108.506 25.2547 108.641 26.1888 108.9 27.0974C109.376 31.0263 109.689 30.2433 107.858 32.1335L109.346 35.1443C109.004 35.4413 108.781 35.5223 108.602 35.5223H108.245C108.096 35.5223 107.947 35.3738 107.694 35.5223H107.888H107.099C107.099 35.5223 107.099 36.0219 107.099 36.1299C107.099 36.2379 107.009 36.6565 106.95 36.6835C106.921 37.025 106.921 37.368 106.95 37.7096H107.158C107.721 38.8109 108.509 39.8052 109.48 40.6394L105.982 40.8014C105.548 43.6181 104.952 46.4122 104.196 49.1723C103.779 50.779 103.065 50.3605 102.112 51.5081C99.7901 54.3029 99.7306 54.5999 99.2394 56.9087C99.2394 60.0545 99.1352 58.2588 99.0608 58.6504C98.9397 59.2193 98.7292 59.7695 98.4356 60.2841L101.532 62.9843V63.1599L98.4654 61.3777C98.0188 62.0662 97.3936 61.8502 96.6792 64.078C95.4139 64.078 93.9105 67.1428 92.8834 69.087C92.1094 70.5587 91.3949 72.5434 90.8144 72.5434C90.5316 73.3265 90.2488 73.718 89.9957 74.2851L92.6453 72.5434L90.0106 74.4336C90.0106 74.4336 90.0106 74.5146 90.0106 74.5281L86.2298 77.0394L87.5545 80.7388L88.6858 83.9521L87.5545 80.7523C87.3015 81.5084 87.108 82.197 86.9591 82.818L88.5667 83.8847L86.9591 82.98C86.4553 85.1181 86.3446 87.317 86.6317 89.4878C86.908 91.8828 86.6187 94.3038 85.7832 96.5895C85.1729 98.5472 85.7832 99.0468 85.6195 100.937C85.1861 101.293 84.7233 101.618 84.2352 101.909V101.909C83.624 102.218 83.0503 102.585 82.5234 103.003C81.7476 103.78 80.8617 104.461 79.8887 105.028V109.848C79.8887 110.132 80.6776 110.483 80.9009 110.82L82.1066 110.132L81.0944 111.104C82.1492 112.48 82.7483 114.101 82.8211 115.775C83.4062 118.402 83.3349 121.115 82.6127 123.714L81.407 125.213C82.0619 126.644 82.8955 126.954 83.5355 128.575C84.1756 130.195 84.4584 132.301 85.2622 132.301C85.2622 132.301 85.2622 133.368 85.3664 133.435C87.6736 137.621 82.4787 136.567 87.0038 141.671H87.3313L87.5248 141.982C87.7034 142.171 87.8522 142.468 88.0606 142.67C89.5492 142.333 89.2515 142.414 90.0255 141.671C90.8442 144.236 91.0079 143.021 90.8888 144.871L89.4003 145.073C88.79 152.621 88.5667 151.689 93.1067 155.645C95.6818 157.9 93.2407 158.507 92.556 160.249C92.1541 161.248 93.196 166.068 94.6101 166.851C95.8708 170.087 97.518 173.189 99.5222 176.1C100.787 178.03 102.276 178.287 101.815 181.298C101.487 183.431 100.787 185.348 100.505 187.603C104.702 189.628 105.729 191.194 111.743 191.383C112.085 191.748 112.398 191.991 112.71 191.991C114.199 195.137 115.315 197.203 117.742 198.269C119.855 199.201 121.314 198.634 122.207 200.51C123.294 202.914 122.371 202.779 125.437 203.373C131.942 204.642 132.88 213.998 133.535 217.927C133.499 218.784 133.584 219.642 133.788 220.479L159.658 224.435C161.995 228.486 162.635 227.311 167.25 229.431C168.738 230.092 172.043 232.86 174.901 234.197C177.759 235.533 178.92 235.668 183.549 237.991C186.333 239.341 188.997 241.001 191.498 242.487L195.963 245.43L198.94 247.347C200.89 248.549 207.306 248.549 210.089 248.805C217.919 249.534 225.704 250.52 233.489 251.114L234.278 245.524L254.328 246.983C255.817 249.291 255.534 249.831 257.722 252.005C259.91 254.179 266.504 258.243 267.799 259.809C268.29 260.416 267.799 259.741 268.156 260.498L269.288 262.739C270.077 263.778 269.823 265.007 270.285 266.56C270.871 268.536 271.823 270.407 273.098 272.095C277.043 276.024 283.994 282.235 289.576 283.301C292.099 280.494 294.937 277.933 298.046 275.66C299.838 274.308 302.101 273.576 304.431 273.594C306.813 273.594 309.522 274.35 310.386 275.822C313.363 280.453 312.082 278.522 316.25 281.749C317.739 282.883 316.95 282.923 317.739 284.625C319.674 288.675 325.077 294.238 328.605 297.897H329.141C330.734 298.99 331.344 299.247 331.895 302.069C332.957 305.893 334.511 309.59 336.524 313.086C339.799 318.365 349.757 316.083 354.505 319.634C356.44 321.092 358.331 320.728 360.772 319.877C360.147 318.851 359.283 318.999 358.42 318.405C360.206 313.194 355.22 311.344 356.411 308.009C356.877 306.649 357.117 305.234 357.125 303.81L354.773 303.257L354.862 301.907L357.482 302.285C357.265 300.999 357.566 299.685 358.331 298.585L356.842 298.045L356.604 297.546C357.359 296.971 358.214 296.514 359.134 296.195C359.134 292.388 360.742 293.495 361.903 292.429C361.903 292.429 362.409 291.726 362.499 291.618C363.526 290.268 364.061 290.052 364.166 288.27C366.026 288.635 364.731 288.486 366.116 289.269C367.172 288.108 367.306 288.216 369.093 287.703L368.363 285.597C376.863 284.436 383.903 282.653 386.002 274.796L386.613 272.392C386.702 272.19 386.732 272.082 386.761 272.082H387.878C389.143 273.175 389.039 274.283 388.354 275.795L401.274 272.082H407.228C407.705 272.098 408.179 272.157 408.643 272.257C411.548 272.611 414.484 272.706 417.41 272.541C417.961 272.433 417.961 272.203 418.154 272.203" stroke="black" stroke-width="2" stroke-linejoin="bevel"/>
<path d="M106.979 37.1697C106.979 37.1697 112.487 35.8195 112.487 37.6017C112.487 39.3839 109.659 45.338 113.291 46.4452C116.923 47.5523 117.756 44.5955 122.951 47.1743C128.146 49.753 128.98 48.2814 133.817 49.0105C138.225 49.463 142.665 49.5895 147.095 49.3885L158.765 51.2247L166.014 51.5892L172.34 21.886" stroke="black" stroke-width="2" stroke-linejoin="bevel"/>
<path d="M86.5723 85.3428L152.335 100.14L166.014 51.5486" stroke="black" stroke-width="2" stroke-linejoin="bevel"/>
<path d="M180.423 23.668L179.902 37.9795L183.921 42.57L185.946 47.5386L190.158 49.9419C190.158 49.9419 184.934 60.9726 186.943 64.1049C188.953 67.2372 191.781 61.5261 191.781 61.5261L192.376 68.5199L195.606 70.9097L196.008 73.6099L198.018 76.5533L197.809 79.4966L205.058 80.2392C205.058 80.2392 210.298 77.8359 211.504 78.2139C213.027 79.0147 214.441 79.9754 215.716 81.0763" stroke="black" stroke-width="2" stroke-linejoin="bevel"/>
<path d="M125.571 94.6184L115.702 129.574L157.738 187.32" stroke="black" stroke-width="2" stroke-linejoin="bevel"/>
<path d="M152.335 100.14L209.688 110.996" stroke="black" stroke-width="2" stroke-linejoin="bevel"/>
<path d="M210.015 249.251L223.367 175.776" stroke="black" stroke-width="2" stroke-linejoin="bevel"/>
<path d="M181.912 106.027C181.718 106.581 168.827 167.675 168.827 167.675C168.723 167.945 168.47 168.107 168.426 168.417C168.412 168.662 168.382 168.905 168.336 169.147C168.195 169.464 168.025 169.771 167.83 170.065C167.527 170.445 167.258 170.847 167.026 171.266C166.952 171.818 166.952 172.375 167.026 172.927C167.056 173.21 167.056 173.495 167.026 173.778C166.892 174.277 166.52 174.709 166.386 175.222C166.244 175.953 166.2 176.696 166.252 177.436C166.307 177.764 166.28 178.099 166.175 178.417C166.069 178.734 165.887 179.027 165.642 179.273C165.076 179.867 164.481 180.38 163.633 180.056C163.198 179.9 162.791 179.686 162.427 179.421C161.891 178.989 161.4 179.097 160.715 179.084C160.03 179.07 159.971 179.178 159.614 179.678C159.193 180.201 158.853 180.773 158.601 181.379C158.333 181.958 158.128 182.559 157.991 183.175C157.994 183.747 157.959 184.32 157.887 184.889C157.799 185.335 157.769 185.788 157.798 186.239C157.857 187.22 157.857 188.202 157.798 189.183C157.686 189.571 157.515 189.944 157.291 190.29C157.173 190.708 157.138 191.143 157.187 191.572C157.135 192.093 157.135 192.618 157.187 193.139C157.282 193.466 157.472 193.765 157.738 194.003C158.051 194.367 158.199 194.799 158.497 195.164C158.742 195.487 158.96 195.825 159.152 196.176C159.417 196.597 159.582 197.062 159.636 197.544C159.689 198.025 159.631 198.512 159.465 198.971C159.197 199.471 158.84 199.916 158.601 200.416C158.363 200.915 158.393 201.253 158.14 201.699C157.883 202.207 157.564 202.687 157.187 203.13C156.82 203.446 156.41 203.718 155.967 203.94C155.743 204.102 155.505 204.358 155.282 204.547C155.02 204.728 154.746 204.894 154.463 205.047C153.988 205.388 153.597 205.815 153.317 206.303C153.016 206.826 152.782 207.379 152.618 207.95L152.35 208.692C152.35 208.854 152.186 209.07 152.141 209.232C152.097 209.394 152.141 209.543 152.141 209.705C152.141 209.867 152.007 209.934 151.977 210.069C151.948 210.285 151.948 210.502 151.977 210.718V216.739C151.977 217.023 151.977 217.347 151.977 217.617C152.038 217.801 152.113 217.982 152.201 218.157C152.201 218.413 152.201 218.737 152.201 218.994C152.201 219.251 152.364 219.412 152.409 219.642C152.498 220.088 159.658 224.489 159.658 224.948" stroke="black" stroke-width="2" stroke-linejoin="bevel"/>
<path d="M282.536 81.7245L216.937 74.7307L208.273 123.512L278.725 131.234L282.536 81.7245Z" stroke="black" stroke-width="2" stroke-linejoin="bevel"/>
<path d="M287.031 36.103L280.541 106.432L335.095 108.417C335.095 108.417 336.703 110.253 338.31 111.725C339.918 113.196 340.335 113.075 341.541 112.656C342.746 112.238 342.136 110.807 343.342 110.631C344.547 110.456 347.971 112.832 348.775 113.331C349.579 113.831 356.217 116.828 356.217 116.828C356.217 116.828 358.822 117.382 359.641 122.715C360.46 128.048 359.224 132.099 361.65 136.149C363.214 138.69 365.033 141.094 367.084 143.332C369.014 144.717 371.027 146.006 373.112 147.193H298.686V132.706L278.755 131.234" stroke="black" stroke-width="2" stroke-linejoin="bevel"/>
<path d="M229.201 126.09C229.008 126.819 223.366 175.776 223.366 175.776L168.827 167.675" stroke="black" stroke-width="2" stroke-linejoin="bevel"/>
<path d="M223.367 175.776L296.022 181.662L298.642 147.247" stroke="black" stroke-width="2" stroke-linejoin="bevel"/>
<path d="M296.021 181.662L375.717 183.134" stroke="black" stroke-width="2" stroke-linejoin="bevel"/>
<path d="M373.112 147.247L371.296 151.298L375.121 158.467L376.833 225.461" stroke="black" stroke-width="2" stroke-linejoin="bevel"/>
<path d="M285.155 187.914L317.158 188.103L317.352 214.606" stroke="black" stroke-width="2" stroke-linejoin="bevel"/>
<path d="M317.56 214.606C317.56 214.754 317.426 214.808 317.263 214.835C317.898 215.086 318.562 215.272 319.242 215.389C319.796 215.572 320.37 215.699 320.954 215.767C321.818 215.767 322.993 215.538 323.663 216.064C324.361 216.613 325.102 217.114 325.881 217.563C326.651 218.117 327.461 218.622 328.307 219.075C329.029 219.394 329.813 219.582 330.615 219.629C331.488 219.749 332.333 219.999 333.115 220.371C333.982 220.6 334.861 220.785 335.75 220.925C336.675 221.071 337.518 221.494 338.147 222.126C338.712 222.693 339.754 223.652 340.662 223.206C340.99 223.058 341.243 222.774 341.585 222.612C341.906 222.475 342.21 222.308 342.493 222.113C342.891 221.845 343.326 221.627 343.788 221.465C344.22 221.293 344.69 221.212 345.162 221.228C345.634 221.245 346.095 221.358 346.512 221.559C347.316 222.045 348.001 222.68 348.909 223.139C349.225 223.361 349.576 223.538 349.951 223.665C350.445 223.713 350.944 223.713 351.439 223.665H353.062C353.255 223.665 353.463 223.665 353.657 223.665C353.93 223.708 354.199 223.771 354.461 223.854C355.5 223.942 356.547 223.942 357.587 223.854C358.591 223.82 359.589 223.688 360.564 223.463C361.134 223.29 361.691 223.082 362.231 222.842C362.719 222.742 363.222 222.714 363.719 222.761C364.174 222.809 364.634 222.809 365.089 222.761C365.573 222.593 366.026 222.356 366.428 222.059C367.024 221.681 368.081 220.506 368.751 221.235C369.42 221.964 370.031 222.896 370.968 223.125C371.452 223.221 371.926 223.357 372.383 223.53C372.725 223.692 373.037 223.935 373.365 224.124C373.739 224.309 374.093 224.526 374.422 224.773C374.763 225.06 375.156 225.293 375.583 225.461C376.009 225.567 376.453 225.599 376.893 225.556C377.443 225.556 377.845 225.286 378.381 225.421C378.849 225.563 379.275 225.799 379.631 226.109C379.986 226.42 380.261 226.798 380.435 227.216C380.739 227.695 380.983 228.202 381.165 228.728C381.239 229.039 381.165 229.39 381.299 229.701C381.433 230.011 381.418 230.362 381.492 230.7C381.641 231.267 381.701 231.847 381.79 232.428C381.887 232.743 381.962 233.063 382.013 233.386C382.013 233.711 382.013 234.062 382.013 234.386C382.013 235.439 382.594 236.465 382.623 237.531C382.623 238.099 382.817 238.625 382.832 239.192C382.847 239.759 382.832 240.07 382.832 240.542C382.802 240.803 382.802 241.065 382.832 241.325C382.832 241.501 382.996 241.568 383.025 241.784C383.053 242.234 383.053 242.685 383.025 243.135C383.014 243.51 382.949 243.882 382.832 244.242C382.693 244.625 382.623 245.026 382.623 245.43C382.586 245.83 382.586 246.232 382.623 246.631C382.763 247.047 382.985 247.436 383.278 247.779C384.008 248.697 384.514 249.777 385.243 250.682C385.779 251.343 386.419 252.032 387.015 252.667C387.238 252.923 387.476 253.18 387.67 253.45C387.863 253.72 387.952 253.882 388.071 254.084C388.191 254.301 388.271 254.533 388.31 254.773C388.451 255.085 388.57 255.405 388.667 255.731C388.786 256.174 388.856 256.626 388.875 257.082V258.27C388.854 258.731 388.753 259.187 388.578 259.62C388.414 260.065 388.146 260.47 387.967 260.902C387.892 261.076 387.792 261.239 387.67 261.389C387.497 261.694 387.347 262.01 387.223 262.334C386.751 263.245 386.343 264.183 386.002 265.142C385.749 265.902 385.441 266.646 385.08 267.37C384.751 268.154 384.689 269.01 384.901 269.827C385.005 270.192 385.065 270.583 385.154 270.934C385.243 271.285 386.494 272.541 386.479 272.973" stroke="black" stroke-width="2" stroke-linejoin="bevel"/>
<path d="M376.327 190.681L423.617 188.845C423.816 190.261 423.458 191.696 422.605 192.896C421.206 194.732 421.608 195.839 421.608 195.839C421.608 195.839 426.833 195.839 428.247 195.65" stroke="black" stroke-width="2" stroke-linejoin="bevel"/>
<path d="M284.56 70.8691L353.984 73.0834" stroke="black" stroke-width="2" stroke-linejoin="bevel"/>
<path d="M355.994 102.53C356.604 101.977 406.916 103.084 406.916 103.084" stroke="black" stroke-width="2" stroke-linejoin="bevel"/>
<path d="M363.897 139.889C363.897 139.889 397.196 139.889 397.136 139.889C397.296 139.57 397.568 139.309 397.91 139.146C398.365 139.046 398.805 138.897 399.22 138.701C399.514 138.582 399.79 138.427 400.039 138.242C400.143 138.16 400.234 138.064 400.307 137.958C400.362 137.875 400.412 137.79 400.455 137.702C400.857 137.053 401.721 137.053 402.45 137.053C403.179 137.053 403.745 137.742 404.132 138.336C404.251 138.539 404.415 138.687 404.534 138.89C404.646 139.08 404.741 139.279 404.817 139.484C404.951 139.889 405.055 140.334 405.234 140.739C405.665 141.698 406.231 142.616 406.603 143.602C406.767 144.061 406.916 144.506 407.094 144.952C407.294 145.39 407.459 145.842 407.585 146.302C407.585 146.424 407.585 146.545 407.585 146.68C407.619 146.763 407.644 146.849 407.66 146.937C407.644 147.062 407.644 147.189 407.66 147.315C407.66 147.382 407.66 147.423 407.734 147.49C407.809 147.558 407.734 147.976 407.734 148.206C407.798 148.479 407.877 148.75 407.972 149.016C408.121 149.448 408.583 149.731 408.925 150.069C409.267 150.406 409.416 150.555 409.64 150.811C409.863 151.068 409.967 151.311 410.161 151.541C410.354 151.77 410.414 151.851 410.533 152C410.684 152.226 410.853 152.443 411.039 152.648C411.247 152.85 411.351 153.093 411.545 153.296C411.738 153.498 412.021 153.822 412.245 154.106C412.644 154.605 413.109 155.058 413.629 155.456C414.164 155.82 414.662 156.227 415.117 156.671C415.562 157.317 416.138 157.88 416.814 158.332C417.167 158.445 417.546 158.477 417.916 158.426H418.526C418.809 158.426 419.062 158.332 419.36 158.332C419.815 158.291 420.274 158.291 420.729 158.332C420.899 158.38 421.064 158.443 421.22 158.521C421.38 158.583 421.526 158.67 421.652 158.777C421.965 159.074 421.845 159.574 421.845 159.952C421.845 160.33 421.845 160.479 421.845 160.735C421.812 161.026 421.711 161.307 421.548 161.559C421.454 161.772 421.344 161.979 421.22 162.18C420.713 162.785 420.441 163.526 420.446 164.286C420.379 164.736 420.404 165.194 420.521 165.636C420.626 165.856 420.701 166.088 420.744 166.325C420.744 166.433 420.744 166.541 420.744 166.649C420.744 166.757 420.744 167.067 420.744 167.27C421.026 168.256 421.72 169.103 422.679 169.633C423.438 170.132 424.168 170.551 425.001 170.983C425.524 171.345 426.021 171.738 426.49 172.157C426.906 172.468 427.338 172.778 427.725 173.116C428.112 173.453 428.112 173.372 428.276 173.534C428.44 173.696 428.588 173.845 428.767 173.98C429.096 174.195 429.396 174.444 429.66 174.723C429.88 174.954 430.029 175.233 430.092 175.533C430.162 175.775 430.187 176.026 430.166 176.275C430.118 176.567 430.018 176.85 429.869 177.112C429.746 177.345 429.651 177.59 429.586 177.841C429.564 177.935 429.564 178.032 429.586 178.125C429.586 178.125 429.586 178.206 429.496 178.219C429.446 178.411 429.472 178.612 429.571 178.787C429.779 179.269 430.104 179.703 430.524 180.056C431.074 180.474 431.61 180.906 432.116 181.406C432.622 181.905 432.935 181.919 433.307 182.202L434.423 183.08" stroke="black" stroke-width="2" stroke-linejoin="bevel"/>
<path d="M428.247 196.015C428.247 195.947 428.247 195.92 428.172 195.934C428.133 196.066 428.108 196.202 428.098 196.339C428.076 196.459 428.076 196.582 428.098 196.703C428.098 196.96 428.098 197.203 428.098 197.446C428.128 197.711 428.128 197.977 428.098 198.242C427.967 198.636 427.772 199.009 427.517 199.349C426.967 200.187 426.803 201.199 426.207 202.05C425.612 202.9 425.18 203.764 424.555 204.588C424.196 205.072 423.787 205.524 423.335 205.938C422.969 206.236 422.621 206.552 422.293 206.883C422.159 207.032 422.04 207.194 421.891 207.342C421.28 207.781 420.773 208.327 420.402 208.949C420.253 209.292 420.079 209.626 419.881 209.948C419.494 210.515 419.881 211.015 420.209 211.501C420.419 211.786 420.599 212.089 420.745 212.405C420.838 212.638 420.874 212.887 420.849 213.134C420.868 213.746 420.67 214.348 420.283 214.849C419.985 215.2 419.866 215.592 419.613 215.956C419.36 216.321 419.048 216.861 418.72 217.306C418.595 217.517 418.456 217.72 418.303 217.914C418.11 218.143 418.006 218.427 417.812 218.657C417.619 218.886 417.515 218.913 417.395 219.062C417.248 219.252 417.113 219.45 416.994 219.656C416.83 219.899 416.592 220.101 416.413 220.331C416.234 220.56 416.205 220.695 416.071 220.857C415.937 221.019 415.862 221.006 415.773 221.1C415.695 221.199 415.625 221.303 415.565 221.411C415.442 221.559 415.308 221.699 415.163 221.829C414.746 222.157 414.419 222.568 414.21 223.031C414.121 223.369 414.21 223.76 414.21 224.111C414.14 224.477 414.115 224.848 414.136 225.218V227.541C414.133 227.943 414.168 228.345 414.24 228.742C414.24 229.107 414.404 229.471 414.478 229.822C414.585 230.22 414.64 230.628 414.642 231.037C414.627 231.204 414.627 231.371 414.642 231.537C414.642 231.685 414.731 231.78 414.746 231.928C414.746 232.604 414.746 233.279 414.746 233.994C414.708 234.308 414.708 234.625 414.746 234.939C414.828 235.335 414.948 235.723 415.103 236.1C415.213 236.406 415.357 236.7 415.535 236.978C415.639 237.167 415.713 237.37 415.818 237.572C415.922 237.775 416.249 238.234 416.413 238.571C416.577 238.909 416.696 239.138 416.83 239.422C416.964 239.705 417.172 240.002 417.291 240.299C417.41 240.596 417.708 240.853 417.738 241.204C417.753 241.456 417.753 241.708 417.738 241.96C417.738 242.622 417.068 242.892 416.502 243.162C415.767 243.465 415.145 243.958 414.716 244.579C414.255 245.322 413.972 246.186 413.585 246.956C413.141 247.855 412.614 248.717 412.007 249.534C411.697 249.912 411.409 250.304 411.144 250.709C411.068 250.866 410.984 251.019 410.891 251.168C410.797 251.275 410.731 251.4 410.697 251.533C410.667 251.861 410.667 252.19 410.697 252.518C410.699 252.867 410.739 253.216 410.816 253.558C410.905 253.949 411.025 254.341 411.084 254.746C411.119 255.195 411.119 255.647 411.084 256.096C411.084 256.366 410.965 256.717 411.307 256.812C411.431 256.825 411.556 256.825 411.68 256.812C411.843 256.812 411.933 256.893 412.096 256.906C412.26 256.92 412.439 256.906 412.588 256.906C412.743 256.951 412.902 256.982 413.064 257.001C413.421 257.001 413.749 257.082 414.106 257.095C414.463 257.109 414.657 257.19 414.954 257.176H415.907C416.234 257.203 416.563 257.203 416.889 257.176C417.384 257.135 417.883 257.135 418.378 257.176C419.347 257.143 420.311 257.048 421.266 256.893C421.496 256.848 421.73 256.817 421.965 256.798H423.275C423.513 256.798 423.737 256.704 423.975 256.69C424.808 256.69 425.642 256.69 426.461 256.69C426.728 256.69 426.952 256.596 427.22 256.596H429.914C430.048 256.589 430.182 256.589 430.316 256.596C430.448 256.638 430.582 256.674 430.718 256.704C431.02 256.677 431.324 256.677 431.626 256.704C431.626 256.704 431.626 256.596 431.626 256.636C432.274 256.761 432.93 256.851 433.591 256.906C433.948 256.906 434.231 257.028 434.573 257.041C434.858 257.095 435.146 257.135 435.436 257.163C435.808 257.163 435.957 257.163 436.002 257.554C436.032 257.855 436.032 258.158 436.002 258.459C436.002 258.594 435.913 258.648 435.883 258.742C435.853 258.837 435.883 259.039 435.883 259.201C435.883 259.364 435.645 259.566 435.615 259.85H435.347" stroke="black" stroke-width="2" stroke-linejoin="bevel"/>
<path d="M381.85 233.562C383.338 233.562 388.727 233.724 390.215 233.832L414.761 233.279" stroke="black" stroke-width="2" stroke-linejoin="bevel"/>
<path d="M349.682 37.5205C349.682 37.9121 349.548 39.6537 349.548 40.0588C349.556 40.1757 349.556 40.2929 349.548 40.4098C349.508 40.6093 349.443 40.8041 349.355 40.9904C349.241 41.5284 349.201 42.0771 349.236 42.6241V44.4198C349.281 45.0097 349.448 45.5867 349.727 46.121C349.802 46.3908 349.907 46.6531 350.04 46.9041C350.218 47.1876 350.412 47.4711 350.605 47.7276C350.977 48.2542 351.335 48.7537 351.737 49.2533C352.13 49.683 352.437 50.172 352.645 50.698C352.74 51.0268 352.815 51.3604 352.868 51.6971C352.868 52.0616 352.868 52.4397 352.868 52.7907V55.0454C352.867 55.4967 352.897 55.9476 352.957 56.3956C352.942 56.6474 352.942 56.8998 352.957 57.1517C353.054 57.4984 353.129 57.8501 353.18 58.2048C353.18 58.4478 353.18 58.6908 353.18 58.9339C353.18 59.1769 353.27 59.4604 353.285 59.744C353.3 60.0275 353.493 60.7161 353.493 61.2021C353.493 61.6882 353.597 61.8367 353.597 62.1742C353.597 62.5118 353.597 62.9573 353.597 63.3488V64.5775C353.597 64.9015 353.701 65.1851 353.687 65.5091V65.9951C353.71 66.1248 353.75 66.2516 353.806 66.3732C353.813 66.5081 353.813 66.6433 353.806 66.7782C353.823 66.9252 353.858 67.0701 353.91 67.2103C353.924 67.3179 353.924 67.4267 353.91 67.5343C353.918 67.6593 353.948 67.7824 353.999 67.8988C354.037 68.1723 354.037 68.4489 353.999 68.7224C353.999 68.979 354.088 69.168 354.088 69.411C354.081 69.7773 354.111 70.1434 354.178 70.5046C354.178 70.7207 354.178 70.9502 354.178 71.1662C354.228 71.3159 354.263 71.4696 354.282 71.6253V71.9898C354.327 72.2175 354.327 72.4507 354.282 72.6784C354.133 73.0159 353.999 73.3399 353.865 73.691C353.798 73.8619 353.718 74.0288 353.627 74.1905C353.581 74.301 353.541 74.4137 353.508 74.5281C353.431 74.6579 353.366 74.7934 353.314 74.9331C353.314 75.0411 353.314 75.1491 353.314 75.2572C353.314 75.3652 353.225 75.3922 353.225 75.5407C353.225 75.6892 353.225 76.0267 353.225 76.2698V77.6739C353.225 77.9034 353.3 78.0925 353.314 78.3085C353.329 78.5245 353.404 78.5515 353.434 78.6865C353.419 78.8077 353.419 78.9299 353.434 79.0511C353.508 79.3346 353.612 79.6586 353.701 79.9287C353.761 80.1045 353.846 80.2724 353.955 80.4282C354.261 80.9062 354.615 81.3581 355.011 81.7784C355.403 82.1458 355.649 82.6206 355.711 83.1285C355.765 83.3285 355.805 83.5314 355.83 83.7361C355.815 83.8843 355.815 84.0334 355.83 84.1816C355.912 84.6503 355.942 85.1252 355.919 85.5993V86.9494C355.919 87.4355 355.785 87.881 355.815 88.2996C355.844 88.4825 355.889 88.6631 355.949 88.8396C356.011 89.1012 356.036 89.3689 356.024 89.6362C355.941 90.3318 355.941 91.0334 356.024 91.729C356.223 92.9035 356.273 94.0949 356.172 95.2798V98.2232C356.172 98.7362 356.172 99.2358 356.083 99.7488C356.083 99.8704 355.994 99.9379 355.979 100.059C355.964 100.181 355.964 100.303 355.979 100.424C355.957 100.671 355.957 100.919 355.979 101.166C355.979 101.274 356.068 101.369 356.083 101.491C356.098 101.612 356.083 101.774 356.083 101.896C356.067 102.32 355.888 102.726 355.577 103.043C355.384 103.205 355.205 103.178 354.996 103.3C354.873 103.362 354.769 103.452 354.694 103.561C354.618 103.669 354.574 103.793 354.565 103.921C354.553 104.631 354.453 105.337 354.267 106.027C354.084 106.423 354.017 106.856 354.074 107.283C354.074 107.418 354.222 107.539 354.267 107.688C354.347 107.988 354.382 108.297 354.371 108.606C354.347 109.021 354.423 109.436 354.595 109.821C354.737 110.265 354.851 110.715 354.937 111.171C355.091 111.682 355.171 112.208 355.175 112.737C355.175 113.304 355.071 113.858 355.071 114.411C355.073 114.672 355.113 114.93 355.19 115.181C355.279 115.395 355.344 115.617 355.383 115.843C355.369 115.95 355.369 116.059 355.383 116.167C355.383 116.275 355.383 116.383 355.383 116.491C355.383 116.599 355.637 117.017 355.785 116.761" stroke="black" stroke-width="2" stroke-linejoin="bevel"/>
<path d="M399.161 60.5271C399.012 60.6756 396.392 61.4047 396.348 61.5802C396.228 62.0258 395.797 63.0519 395.737 63.5109C395.678 63.97 395.544 64.402 395.484 64.8611C395.454 65.2431 395.454 65.6266 395.484 66.0087C395.484 66.8998 395.782 67.7504 395.782 68.628C395.794 68.789 395.829 68.9478 395.886 69.1005C395.901 69.2938 395.901 69.4878 395.886 69.6811V70.5182C395.905 70.6304 395.897 70.7448 395.864 70.8541C395.83 70.9634 395.772 71.0652 395.693 71.1528C395.571 71.3399 395.437 71.5203 395.291 71.6928C395.069 71.8932 394.819 72.0657 394.546 72.2059C394.401 72.2998 394.247 72.3811 394.085 72.4489C393.968 72.4894 393.858 72.5439 393.758 72.6109C393.375 72.8473 393.034 73.134 392.745 73.4615C392.538 73.7208 392.315 73.9688 392.075 74.2041C391.882 74.3796 391.659 74.4606 391.54 74.6631C391.421 74.8657 391.346 75.2167 391.153 75.4867C390.834 76.1075 390.766 76.8097 390.959 77.4715C390.959 77.836 391.108 78.2005 391.168 78.5651C391.181 78.908 391.241 79.2481 391.346 79.5777C391.43 79.8643 391.571 80.1343 391.763 80.3743C391.955 80.551 392.093 80.7695 392.165 81.0088C392.187 81.2785 392.187 81.5493 392.165 81.8189V82.305C392.144 82.4604 392.11 82.614 392.061 82.764C392.046 82.9122 392.046 83.0614 392.061 83.2096C392.061 83.4661 391.956 83.7226 391.942 83.9792C391.927 84.2357 391.942 84.6542 391.942 84.9918C391.942 85.3293 392.046 85.8289 392.031 86.2609C392.021 86.6006 392.098 86.9377 392.254 87.2465C392.505 87.7838 392.858 88.2772 393.296 88.7047C393.626 88.9228 393.98 89.1084 394.353 89.2582C394.576 89.3663 394.814 89.5283 395.038 89.6633C395.261 89.7983 395.454 89.8523 395.663 89.9738C396.06 90.2531 396.489 90.493 396.943 90.6894C397.449 90.8919 397.925 91.1484 398.431 91.3375C399.268 91.6538 400.083 92.0145 400.873 92.4176C401.617 92.7686 402.361 93.0792 403.105 93.4572L403.671 93.7272C403.824 93.8299 403.964 93.9476 404.088 94.0783C404.281 94.2268 404.475 94.3348 404.653 94.4968C404.78 94.6225 404.895 94.7581 404.996 94.9018C405.236 95.1913 405.441 95.5037 405.606 95.8335C405.708 95.9921 405.793 96.1594 405.859 96.333C405.934 96.5625 405.859 96.7921 405.963 97.0351C406.068 97.2781 406.097 97.9262 406.231 98.3852C406.297 98.566 406.346 98.7511 406.38 98.9388C406.38 99.1008 406.38 99.2493 406.38 99.4114C406.424 99.5846 406.454 99.7606 406.469 99.9379C406.469 100.127 406.469 100.316 406.469 100.491C406.469 100.667 406.648 101.18 406.663 101.531C406.678 101.882 406.767 102.017 406.767 102.26V102.638C406.787 102.794 406.822 102.947 406.871 103.097C406.876 103.343 406.911 103.588 406.976 103.826C407.093 104.118 407.232 104.402 407.392 104.677C407.497 104.879 407.586 105.122 407.705 105.311C407.824 105.501 407.928 105.595 408.018 105.771C408.172 106.121 408.367 106.456 408.598 106.77C408.79 106.993 408.95 107.238 409.074 107.499C409.241 107.747 409.43 107.982 409.64 108.201C410.079 108.72 410.551 109.216 411.054 109.686C411.399 110.114 411.783 110.516 412.2 110.888C412.416 111.057 412.611 111.247 412.781 111.455C412.888 111.599 412.977 111.753 413.049 111.914C413.168 112.157 413.242 112.44 413.51 112.575C413.99 112.717 414.501 112.749 414.999 112.67C415.581 112.643 416.164 112.67 416.74 112.751C417.351 112.874 417.975 112.938 418.601 112.94H420.089C420.551 112.94 420.997 112.845 421.459 112.845H422.828C423.085 112.872 423.345 112.872 423.602 112.845C423.943 112.837 424.281 112.801 424.614 112.737L446.689 112.265" stroke="black" stroke-width="2" stroke-linejoin="bevel"/>
<path d="M449.294 116.221L446.764 152.351C446.764 152.661 446.377 152.715 446.139 152.837C445.901 152.958 445.856 152.904 445.782 152.972C445.645 153.137 445.526 153.313 445.424 153.498C445.325 153.681 445.24 153.871 445.171 154.065C445.097 154.281 445.171 154.335 445.35 154.443C445.528 154.551 446.094 154.875 446.243 155.186C446.315 155.478 446.35 155.777 446.347 156.077C446.347 156.158 446.422 156.199 446.436 156.266C446.444 156.356 446.444 156.446 446.436 156.536C446.481 156.715 446.551 156.887 446.645 157.049C446.928 157.643 447.478 158.048 447.731 158.656C447.829 158.953 447.869 159.264 447.851 159.574C447.855 159.787 447.83 160.001 447.776 160.209C447.702 160.407 447.602 160.598 447.478 160.776C447.432 160.877 447.392 160.981 447.359 161.086C447.359 161.194 447.21 161.248 447.151 161.343C447.091 161.437 446.883 161.775 446.764 161.977C446.584 162.392 446.37 162.793 446.124 163.179C446.035 163.273 445.871 163.3 445.826 163.435C445.782 163.57 445.975 163.624 446.139 163.624C446.552 163.593 446.968 163.615 447.374 163.692C448.159 163.921 448.855 164.347 449.384 164.921C449.525 165.065 449.654 165.218 449.771 165.38C449.875 165.542 449.771 165.65 449.86 165.839C449.881 165.901 449.911 165.96 449.949 166.014C449.949 166.136 449.949 166.23 449.949 166.338C449.949 166.446 450.024 166.487 450.039 166.568C450.054 166.649 450.039 166.757 450.039 166.851C450.082 167.003 450.117 167.156 450.143 167.31C450.143 167.499 450.143 167.675 450.143 167.864V168.039C450.143 168.188 450.143 168.228 450.143 168.336C450.199 168.477 450.244 168.622 450.277 168.768C450.314 168.778 450.355 168.775 450.39 168.76C450.426 168.746 450.454 168.72 450.47 168.687" stroke="black" stroke-width="2" stroke-linejoin="bevel"/>
<path d="M428.351 196.014C428.351 195.825 428.351 195.636 428.351 195.447C428.351 195.258 428.44 195.042 428.455 194.813C428.433 194.669 428.433 194.524 428.455 194.381C428.482 194.332 428.507 194.283 428.529 194.232C428.545 194.12 428.545 194.007 428.529 193.895C428.422 193.307 428.499 192.703 428.753 192.153C428.961 191.856 429.288 191.613 429.512 191.329C429.735 191.046 429.914 190.708 430.122 190.411C430.33 190.114 430.405 189.831 430.598 189.574C430.792 189.318 430.792 189.345 430.881 189.21C430.97 189.075 431.03 188.764 431.164 188.562C431.276 188.446 431.381 188.324 431.476 188.197C431.61 187.995 431.7 187.833 431.849 187.643C432.098 187.384 432.327 187.109 432.533 186.82C432.712 186.509 433.025 186.293 433.188 185.983C433.352 185.672 433.441 185.429 433.56 185.159C433.667 184.923 433.752 184.679 433.813 184.43C433.839 184.301 433.879 184.174 433.933 184.052C434.001 183.88 434.056 183.704 434.096 183.526C434.172 183.337 434.313 183.176 434.498 183.066C434.573 183.066 434.721 182.958 434.811 182.904C434.9 182.85 435.332 182.648 435.585 182.486C435.869 182.328 436.129 182.137 436.359 181.919C436.671 181.595 437.058 181.338 437.356 181.001C437.572 180.774 437.811 180.566 438.071 180.38C438.428 180.083 438.726 179.732 439.098 179.475C439.47 179.219 439.455 179.273 439.604 179.151C439.821 178.96 440.021 178.752 440.199 178.53C440.791 178.108 441.358 177.657 441.896 177.18C442.031 176.984 442.132 176.77 442.194 176.545C442.298 176.235 442.447 175.951 442.521 175.641C442.651 175.152 442.889 174.693 443.221 174.291C443.801 173.615 444.814 173.359 445.364 172.643C445.751 172.13 445.915 171.496 446.332 170.996C446.673 170.66 446.955 170.277 447.165 169.862C447.32 169.554 447.555 169.286 447.85 169.079C448.157 168.908 448.494 168.789 448.847 168.728C449.205 168.647 449.681 168.404 450.038 168.498C450.594 168.718 451.18 168.867 451.78 168.944C452.186 168.915 452.576 168.789 452.911 168.579C453.355 168.321 453.769 168.023 454.147 167.688C454.427 167.494 454.763 167.377 455.114 167.351C455.374 167.284 455.637 167.23 455.903 167.189H456.707C457.113 167.214 457.52 167.178 457.913 167.081C458.245 166.941 458.525 166.716 458.716 166.433C459.059 166.068 459.431 165.717 459.773 165.353C460.069 165.038 460.428 164.777 460.83 164.583C460.981 164.491 461.155 164.436 461.336 164.421C461.53 164.421 461.753 164.704 461.902 164.799C462.534 165.109 463.095 165.526 463.554 166.028C463.876 166.514 464.314 166.929 464.834 167.243C465.377 167.453 465.985 167.477 466.546 167.31C467.123 167.164 467.64 166.868 468.034 166.46C468.24 166.226 468.424 165.978 468.585 165.717C468.845 165.332 469.064 164.925 469.24 164.502C469.285 164.184 469.285 163.862 469.24 163.543C469.263 163.283 469.263 163.021 469.24 162.76C469.128 162.29 469.098 161.807 469.151 161.329C469.177 161.128 469.271 160.94 469.419 160.789C469.536 160.683 469.645 160.57 469.746 160.452C469.746 160.37 469.746 160.289 469.85 160.195C470.073 159.939 470.352 159.728 470.669 159.574C470.892 159.425 471.145 159.304 471.369 159.169C471.59 159.006 471.794 158.826 471.979 158.629L472.545 158.102C472.783 157.9 473.036 157.792 473.185 157.522C473.628 156.91 474.126 156.332 474.673 155.793C475.215 155.086 475.712 154.352 476.162 153.593C476.428 153.127 476.823 152.731 477.308 152.445C477.614 152.212 477.985 152.058 478.38 152C478.576 151.965 478.778 151.965 478.975 152C479.094 152 479.154 152.162 479.228 152.256C479.324 152.371 479.44 152.471 479.57 152.553C479.857 152.761 480.112 153.001 480.33 153.269C480.532 153.518 480.716 153.78 480.88 154.052C481.106 154.351 481.382 154.615 481.699 154.835C482.286 155.206 482.967 155.438 483.679 155.51C484.396 155.578 485.12 155.578 485.837 155.51C486.987 155.548 488.139 155.484 489.276 155.321C490.176 155.184 491.087 155.12 492 155.132C492.431 155.132 492.848 155.24 493.295 155.226C493.741 155.213 494.158 155.307 494.604 155.321C495.239 155.388 495.882 155.337 496.495 155.172C498.102 154.592 500.454 153.822 501.63 155.523C502.077 156.172 502.196 156.995 502.642 157.67C502.899 157.996 503.128 158.339 503.327 158.696C503.551 159.196 503.61 159.736 503.833 160.249C504.057 160.762 504.235 161.127 504.429 161.599C504.622 162.072 504.682 162.409 504.845 162.787C505.296 163.813 505.674 164.864 505.977 165.933C506.071 166.379 506.136 166.83 506.17 167.283C506.17 167.756 506.349 168.215 506.423 168.633C506.423 168.741 506.557 168.957 506.557 169.052C506.557 169.146 506.081 169.443 505.932 169.552C505.074 170.128 504.307 170.809 503.655 171.577C503.396 171.941 503.086 172.272 502.732 172.562C502.406 172.777 502.093 173.007 501.794 173.251C501.526 173.466 501.295 173.716 501.109 173.993C501.016 174.189 500.98 174.403 501.005 174.615C500.968 174.798 500.968 174.985 501.005 175.168C501.08 175.317 501.228 175.479 501.08 175.627C500.931 175.776 500.529 175.762 500.335 175.803C499.894 175.931 499.466 176.093 499.055 176.289C498.751 176.419 498.467 176.582 498.207 176.775C497.872 177.108 497.573 177.47 497.314 177.855C497.09 178.152 496.971 178.462 496.763 178.746C496.554 179.03 496.435 179.165 496.316 179.394C496.197 179.624 495.706 180.272 495.929 180.744C495.972 180.693 496.001 180.633 496.013 180.57C496.026 180.507 496.023 180.442 496.004 180.38" stroke="black" stroke-width="2" stroke-linejoin="bevel"/>
<path d="M485.004 247.361C485.004 247.212 485.48 245.187 485.465 245.038C485.443 244.891 485.403 244.746 485.346 244.606C485.329 244.338 485.289 244.072 485.227 243.81C485.126 243.484 484.981 243.171 484.795 242.878C484.706 242.743 484.602 242.581 484.497 242.446C484.393 242.311 484.259 242.284 484.155 242.19C483.766 241.788 483.563 241.266 483.589 240.731C483.765 239.817 484.009 238.915 484.319 238.031C484.495 237.725 484.688 237.427 484.899 237.14C485.273 236.577 485.426 235.915 485.331 235.263C485.331 234.939 485.197 234.696 485.197 234.359C485.242 234.059 485.242 233.754 485.197 233.454C485.143 233.328 485.108 233.197 485.093 233.063C485.068 232.862 485.028 232.664 484.974 232.468C484.899 231.982 484.855 231.469 484.825 230.983C484.778 230.399 484.694 229.817 484.572 229.242C484.572 229.039 484.572 228.85 484.497 228.648C484.414 228.435 484.345 228.219 484.289 228C484.109 227.111 483.875 226.232 483.589 225.367C483.411 224.867 483.247 224.354 483.083 223.855C482.92 223.355 482.696 222.855 482.577 222.356C482.056 220.223 481.416 218.089 480.672 216.01C480.344 215.106 479.913 214.255 479.6 213.31C479.198 212.122 478.499 211.069 478.022 209.935C477.472 208.726 476.831 207.553 476.102 206.424C475.864 206.033 475.641 205.655 475.388 205.29C475.225 205.023 475.105 204.737 475.03 204.439H457.957C455.561 204.899 453.164 205.29 450.738 205.641L449.071 205.844H448.237C448.148 205.844 447.91 205.844 447.835 205.844C447.761 205.844 447.746 205.601 447.731 205.601C447.716 205.601 447.404 205.749 447.418 205.844H441.837C441.576 205.813 441.317 205.768 441.062 205.709C440.765 205.709 440.452 205.709 440.155 205.709C439.857 205.709 439.187 205.601 438.666 205.574C437.818 205.574 436.954 205.574 436.106 205.574C434.129 205.651 432.162 205.877 430.226 206.249C428.779 206.35 427.326 206.35 425.88 206.249H424.004C423.654 206.194 423.297 206.194 422.947 206.249V206.343" stroke="black" stroke-width="2" stroke-linejoin="bevel"/>
<path d="M452.748 249.683L450.738 205.614" stroke="black" stroke-width="2" stroke-linejoin="bevel"/>
<path d="M475.001 204.426C475.939 204.547 499.532 201.415 499.532 201.415" stroke="black" stroke-width="2" stroke-linejoin="bevel"/>
<path d="M537.802 230.646C536.751 230.228 535.672 229.872 534.572 229.579L534.036 229.228C533.783 229.093 533.485 229.053 533.217 228.931C532.949 228.81 532.636 228.567 532.294 228.432C531.888 228.283 531.452 228.214 531.014 228.229H529.808C529.422 228.268 529.042 228.35 528.677 228.472C528.278 228.56 527.867 228.601 527.456 228.594C527.278 228.614 527.098 228.614 526.921 228.594C526.742 228.594 526.578 228.405 526.4 228.364C526.221 228.324 526.117 228.364 525.953 228.283C525.778 228.189 525.609 228.085 525.447 227.973C525.104 227.777 524.814 227.514 524.598 227.203C524.464 227.027 524.33 226.879 524.182 226.703C524.004 226.483 523.858 226.243 523.75 225.988C523.527 225.583 523.244 225.191 523.006 224.786C522.768 224.381 522.663 224.395 522.529 224.179C522.395 223.963 522.336 223.787 522.202 223.598C521.833 223.089 521.495 222.561 521.19 222.018C520.699 221.114 520.252 220.223 519.701 219.318C519.197 218.497 518.64 217.704 518.034 216.942C517.632 216.375 517.275 215.686 516.546 215.43C515.784 215.299 515.004 215.285 514.238 215.389H511.887C511.518 215.355 511.166 215.233 510.865 215.037C510.565 214.84 510.327 214.575 510.175 214.269C510.056 214.105 509.922 213.951 509.773 213.809C509.637 213.624 509.527 213.425 509.445 213.215C509.299 213.023 509.124 212.85 508.924 212.702C508.746 212.527 508.642 212.324 508.463 212.149C507.942 211.595 507.406 211.042 506.9 210.488C506.565 210.155 506.266 209.793 506.007 209.408C505.756 209.053 505.477 208.715 505.173 208.395C505.039 208.247 504.95 208.058 504.801 207.909C504.652 207.761 504.503 207.68 504.369 207.545C504.108 207.315 503.824 207.107 503.521 206.924C503.342 206.789 503.342 206.721 503.089 206.681H502.836C502.762 206.681 502.762 206.586 502.687 206.573C502.33 206.505 501.943 206.573 501.586 206.573C501.586 206.573 501.482 206.492 501.422 206.478C501.363 206.465 501.244 206.478 501.154 206.478C500.967 206.436 500.783 206.382 500.604 206.316C500.283 206.198 500.008 205.996 499.815 205.736C499.312 205.157 499.03 204.447 499.011 203.71V202.725C499 202.554 499.031 202.384 499.1 202.226C499.17 202.067 499.276 201.924 499.413 201.807C499.954 201.259 500.683 200.892 501.482 200.767C502.332 200.581 503.103 200.172 503.7 199.592C504.19 198.956 504.895 198.482 505.709 198.242C506.81 197.999 507.94 197.877 509.073 197.878H510.562C510.745 197.863 510.925 197.826 511.098 197.77C511.306 197.77 511.529 197.77 511.738 197.77C512.214 197.675 512.705 197.513 513.226 197.392C513.747 197.27 514.551 197.203 515.206 197.081C515.785 196.984 516.373 196.935 516.962 196.933C517.528 196.933 518.079 196.703 518.659 196.69C519.85 196.69 520.996 196.325 522.187 196.325C522.553 196.291 522.922 196.291 523.289 196.325C523.567 196.417 523.824 196.554 524.048 196.73C524.241 196.865 524.435 197.041 524.643 197.162C524.801 197.265 524.925 197.405 525 197.567C525.184 197.83 525.399 198.075 525.64 198.296C525.916 198.523 526.248 198.687 526.608 198.774C526.968 198.86 527.346 198.868 527.709 198.796C528.096 198.796 528.409 198.553 528.796 198.539C529.106 198.513 529.414 198.472 529.719 198.418L530.969 198.296C531.55 198.296 532.101 198.053 532.681 198.053C532.924 198.043 533.165 198.002 533.396 197.932C533.738 197.911 534.081 197.911 534.423 197.932C534.735 197.932 535.018 197.81 535.331 197.81C535.592 197.795 535.851 197.759 536.105 197.702C537.19 197.569 538.286 197.524 539.379 197.567C539.794 197.527 540.212 197.578 540.6 197.716C541.329 197.948 542.027 198.252 542.684 198.62C543.19 199.012 543.324 199.876 543.577 200.416C543.937 201.067 544.444 201.642 545.066 202.104C545.348 202.333 545.527 202.617 545.81 202.846C546.078 203.067 546.379 203.253 546.703 203.4C546.971 203.521 547.179 203.71 547.447 203.818C547.715 203.926 548.043 204.061 548.34 204.223C548.638 204.385 548.861 204.547 549.144 204.682C549.379 204.77 549.596 204.893 549.784 205.047C549.933 205.182 550.052 205.317 550.201 205.439C550.35 205.56 551.02 206.249 551.228 206.438" stroke="black" stroke-width="2" stroke-linejoin="bevel"/>
<path d="M488.278 203.238C488.278 202.482 487.757 200.362 487.742 199.619C487.816 198.776 487.995 197.942 488.278 197.135C488.343 196.857 488.438 196.586 488.561 196.325C488.696 196.098 488.878 195.896 489.097 195.731C489.194 195.618 489.304 195.514 489.424 195.42L489.752 195.204C490.064 195.015 490.332 194.799 490.675 194.61C492.197 193.816 493.664 192.937 495.066 191.978C495.299 191.795 495.542 191.624 495.795 191.465C496.063 191.316 496.331 191.235 496.599 191.1C497.382 190.748 498.193 190.45 499.025 190.209C499.74 189.966 500.707 189.574 500.901 188.859C500.985 188.577 501.03 188.287 501.035 187.995C501.053 187.672 501.102 187.351 501.183 187.036C501.915 186.792 502.674 186.62 503.446 186.523C504.052 186.568 504.662 186.545 505.262 186.455C505.957 186.323 506.603 186.03 507.138 185.605C507.751 185.113 508.402 184.661 509.088 184.255C509.519 183.958 509.921 183.593 510.338 183.283C510.755 182.972 510.74 182.959 510.948 182.81C511.475 182.397 512.038 182.022 512.63 181.689C513.24 181.379 513.806 180.933 514.446 180.623C514.86 180.462 515.245 180.248 515.592 179.988C515.916 179.563 516.195 179.111 516.426 178.638C516.599 178.398 516.788 178.168 516.992 177.95C517.118 177.748 517.285 177.57 517.483 177.423C517.743 177.266 518.03 177.148 518.331 177.072C518.644 176.977 519.075 176.694 519.403 176.815" stroke="black" stroke-width="2" stroke-linejoin="bevel"/>
<path d="M432.742 187.117V187.036C433.324 186.962 433.916 187.017 434.469 187.198C434.754 187.235 435.037 187.284 435.317 187.347C435.556 187.414 435.779 187.549 436.017 187.617L436.821 187.806C437.152 187.941 437.467 188.108 437.758 188.305C438.338 188.672 439.007 188.904 439.708 188.98C439.983 188.995 440.258 188.954 440.512 188.859C440.74 188.736 440.958 188.601 441.167 188.454C441.777 188.041 442.354 187.59 442.894 187.104C443.45 186.656 444.138 186.365 444.874 186.267C445.582 186.226 446.293 186.226 447.002 186.267C448.146 186.342 449.296 186.287 450.426 186.105C451.021 185.983 451.676 185.834 452.286 185.767C452.897 185.699 453.224 185.767 453.686 185.767C454.147 185.767 454.296 185.645 454.623 185.632C455.038 185.624 455.452 185.583 455.859 185.51C456.722 185.362 457.615 185.308 458.494 185.173C459.372 185.038 459.833 184.984 460.503 184.916C461.173 184.849 461.768 184.916 462.379 184.768C463.659 184.565 464.969 184.538 466.264 184.322C466.873 184.226 467.491 184.176 468.109 184.174C468.422 184.174 468.69 184.066 468.988 184.039C469.28 184.052 469.573 184.052 469.866 184.039C470.095 183.986 470.329 183.954 470.565 183.944C470.798 183.964 471.032 183.964 471.265 183.944C471.961 183.79 472.667 183.678 473.379 183.607C475.118 183.474 476.844 183.225 478.544 182.864C479.348 182.716 480.137 182.608 480.925 182.405C481.714 182.203 482.414 182.216 483.173 182.081C484.662 181.798 486.031 181.609 487.46 181.366L489.187 181.055L490.928 180.812C491.692 180.708 492.463 180.658 493.236 180.663H493.771C493.933 180.687 494.093 180.723 494.248 180.771C494.604 180.805 494.963 180.805 495.319 180.771C496.153 180.771 496.983 180.676 497.79 180.488C499.279 180.164 500.931 179.907 502.464 179.516C503.417 179.273 504.399 179.07 505.322 178.814L506.186 178.557C506.488 178.467 506.805 178.426 507.123 178.436C507.615 178.436 508.076 178.314 508.612 178.314C509.16 178.319 509.708 178.283 510.249 178.206C510.631 178.179 511.014 178.179 511.395 178.206C511.816 178.184 512.233 178.134 512.646 178.058C513.301 177.963 513.926 177.801 514.566 177.693C515.623 177.518 516.65 177.18 517.677 176.951C518.094 176.856 518.511 176.843 518.912 176.734C519.145 176.644 519.384 176.567 519.627 176.505C519.959 176.485 520.292 176.522 520.609 176.613C520.902 176.681 521.201 176.721 521.502 176.734H522.783C523.676 176.734 524.524 176.734 525.417 176.626C526.119 176.631 526.82 176.595 527.516 176.518C528.156 176.383 528.841 176.518 529.496 176.424C530.821 176.194 532.16 176.248 533.485 176.032C534.17 175.911 534.884 175.87 535.569 175.749C536.254 175.627 537.221 175.506 538.055 175.411C540.107 175.148 542.136 174.756 544.128 174.237C544.798 174.075 545.616 174.007 546.197 173.791C546.326 173.736 546.461 173.691 546.599 173.656C546.854 173.601 547.112 173.561 547.373 173.535C547.79 173.535 548.192 173.278 548.608 173.197C549.173 173.105 549.746 173.06 550.32 173.062C550.871 173.062 551.422 172.954 551.987 172.927C552.553 172.9 553.476 172.846 554.205 172.779C555.232 172.684 556.23 172.455 557.182 172.347C557.733 172.279 558.209 172.347 558.76 172.198C559.313 172.078 559.875 171.996 560.442 171.955C561.324 171.857 562.192 171.676 563.032 171.415C563.693 171.275 564.341 171.085 564.967 170.848C565.533 170.564 566.173 170.402 566.753 170.159C567.334 169.916 567.572 169.822 568.019 169.66C568.852 169.376 569.73 169.228 570.579 168.998C570.862 168.937 571.151 168.901 571.442 168.89C571.665 168.89 571.814 168.782 572.023 168.755C572.514 168.755 572.99 168.674 573.511 168.607C574.164 168.488 574.826 168.416 575.491 168.391C575.833 168.391 577.173 168.242 576.979 168.877" stroke="black" stroke-width="2" stroke-linejoin="bevel"/>
<path d="M506.527 169.484V169.376C506.903 169.329 507.283 169.329 507.659 169.376H509.46C510.26 169.378 511.058 169.305 511.841 169.16C512.422 169.02 513.014 168.925 513.613 168.877C514.75 168.911 515.889 168.829 517.006 168.633C517.906 168.518 518.774 168.253 519.567 167.85C521.033 166.825 522.575 165.891 524.181 165.056C524.631 164.801 525.064 164.522 525.476 164.219C525.938 163.921 526.34 163.584 526.756 163.26L527.605 162.531C527.798 162.355 527.992 162.261 528.081 162.018C528.126 161.659 528.126 161.297 528.081 160.938C528.081 160.182 528.081 159.439 528.081 158.696C528.079 158.305 528.129 157.916 528.23 157.535C528.364 157.022 528.676 156.563 528.825 156.064C528.907 155.715 529.016 155.372 529.153 155.038C529.436 154.416 529.912 153.876 530.239 153.296C530.366 153.018 530.521 152.752 530.701 152.499C531.128 151.99 531.628 151.536 532.189 151.149C532.57 150.925 532.974 150.736 533.395 150.582C534.011 150.262 534.659 149.995 535.33 149.785C536.118 149.724 536.909 149.724 537.697 149.785C538.129 149.785 538.039 149.556 538.099 149.232C538.152 149.09 538.197 148.946 538.233 148.8C538.233 148.597 538.233 148.395 538.233 148.192V147.085C538.283 146.668 538.377 146.257 538.516 145.857C538.828 144.655 540.227 143.953 540.614 142.792C540.941 141.652 541.599 140.612 542.52 139.781C542.903 139.473 543.225 139.108 543.472 138.701C543.529 138.546 543.574 138.388 543.606 138.228C543.606 138.093 543.785 137.918 543.83 137.769C543.962 137.474 544.057 137.166 544.112 136.851C544.112 136.527 543.993 136.027 544.112 135.744C544.336 135.865 544.217 136.392 544.217 136.608" stroke="black" stroke-width="2" stroke-linejoin="bevel"/>
<path d="M502.107 156.577C502.057 155.625 502.111 154.67 502.271 153.728C502.537 152.616 502.895 151.524 503.342 150.461C503.536 150.015 503.789 149.664 504.012 149.245C504.312 148.686 504.698 148.167 505.158 147.706C506.106 146.664 507.185 145.726 508.374 144.911C509.423 144.224 510.522 143.602 511.663 143.048C512.186 142.815 512.684 142.54 513.152 142.225C513.317 142.077 513.472 141.919 513.613 141.752C513.807 141.577 514.06 141.428 514.253 141.239C514.569 140.968 514.804 140.629 514.938 140.253C514.938 140.105 514.938 139.929 514.938 139.767C514.938 139.605 515.057 139.416 515.072 139.214C515.102 138.796 515.102 138.376 515.072 137.958C515.072 137.742 515.072 137.513 515.072 137.31C515.072 137.108 515.176 136.946 515.206 136.757C515.31 136.284 515.459 135.798 515.578 135.325C515.606 135.127 515.661 134.932 515.742 134.745C515.846 134.542 515.92 134.326 516.01 134.137C516.17 133.809 516.397 133.511 516.68 133.26C516.918 133.044 517.736 132.436 517.885 133.017" stroke="black" stroke-width="2" stroke-linejoin="bevel"/>
<path d="M474.673 113.547L478.364 151.932" stroke="black" stroke-width="2" stroke-linejoin="bevel"/>
<path d="M583.349 98.5067L582.739 85.0052C582.739 85.0052 576.159 74.7036 576.159 74.204C576.159 73.7045 575.355 63.1733 575.355 63.1733" stroke="black" stroke-width="2" stroke-linejoin="bevel"/>
<path d="M455.203 115.87L493.294 111.401" stroke="black" stroke-width="2" stroke-linejoin="bevel"/>
<path d="M405.77 141.603C405.923 141.514 406.082 141.433 406.246 141.36C406.424 141.252 406.573 141.117 406.737 140.996C407.169 140.685 407.526 140.348 407.928 140.01C408.159 139.809 408.425 139.645 408.717 139.524C408.868 139.459 409.028 139.414 409.193 139.389C409.334 139.361 409.474 139.325 409.61 139.281C409.833 139.281 410.176 139.281 410.309 139.011C410.37 138.712 410.37 138.406 410.309 138.107C410.268 137.501 410.143 136.902 409.937 136.324C409.93 136.203 409.93 136.081 409.937 135.96C409.937 135.811 409.818 135.69 409.789 135.528C409.811 135.231 409.811 134.933 409.789 134.637C409.789 134.515 409.625 134.502 409.684 134.313C409.744 134.124 409.937 134.002 410.086 133.908C410.235 133.813 410.458 133.692 410.652 133.543C410.845 133.395 410.89 133.138 410.89 132.773C410.91 132.615 410.889 132.455 410.83 132.305C410.77 132.155 410.674 132.02 410.548 131.909C410.443 131.815 410.324 131.761 410.22 131.68C410.103 131.558 409.998 131.427 409.908 131.288C409.671 131.047 409.462 130.785 409.282 130.505C409.029 130.114 408.538 129.466 409.089 129.155C410.027 128.507 411.217 128.169 412.066 127.44C412.55 127.158 413.017 126.851 413.465 126.522C413.646 126.322 413.851 126.141 414.075 125.982C414.28 125.772 414.504 125.578 414.745 125.402C415.032 125.2 415.305 124.984 415.564 124.754C415.817 124.565 416.07 124.43 416.323 124.227C416.874 123.754 417.484 123.336 418.02 122.877C418.281 122.69 418.482 122.443 418.601 122.161C418.69 121.891 418.601 121.594 418.705 121.338C419.017 120.271 418.169 119.353 417.663 118.421C417.073 117.364 416.38 116.357 415.594 115.411C415.207 114.965 414.701 114.614 414.343 114.141C414.18 113.925 413.986 113.75 413.808 113.547C413.629 113.345 413.346 113.048 413.406 112.872" stroke="black" stroke-width="2" stroke-linejoin="bevel"/>
<path d="M285.617 180.623L279.99 243.85L251.262 242.824L251.023 246.591" stroke="black" stroke-width="2" stroke-linejoin="bevel"/>
<path d="M416.457 61.7693C418.188 61.6791 419.922 61.8946 421.563 62.4038C422.745 62.8608 423.881 63.412 424.956 64.051C426.013 64.7936 426.445 66.2518 427.219 67.1564C427.636 67.6424 428.038 68.142 428.425 68.628C428.971 69.1957 429.579 69.7114 430.241 70.1672C432.161 71.8144 434.706 72.0574 436.984 73.043C437.963 73.4943 439.041 73.7433 440.139 73.7721C441.628 73.7721 442.298 75.4597 443.295 75.9998" stroke="black" stroke-width="2" stroke-linejoin="bevel"/>
<path d="M575.372 63.6865C575.238 61.8248 574.858 59.9844 574.241 58.2049C573.794 57.5569 573.466 56.8548 573.05 56.2337C572.633 55.6126 571.561 54.9916 570.906 54.303C570.162 53.5635 569.494 52.7635 568.912 51.9132C568.45 51.1841 568.197 50.4146 567.795 49.672C567.633 49.2133 567.444 48.7627 567.23 48.3218C567.021 48.0383 566.679 47.7953 566.441 47.5118C566.203 47.2282 565.131 45.7836 564.461 45.9591" stroke="black" stroke-width="2" stroke-linejoin="bevel"/>
<path d="M589.408 33.6592C589.217 33.939 589.133 34.2686 589.171 34.5961C589.209 34.9236 589.365 35.2304 589.616 35.4684C590.037 35.9626 590.539 36.3952 591.105 36.751C591.631 37.0568 592.178 37.3319 592.742 37.5746C593.181 37.8504 593.599 38.1526 593.992 38.4792C594.979 39.0686 596.003 39.6051 597.059 40.0859C597.887 40.6163 598.59 41.291 599.128 42.0706C599.694 43.0588 600.072 44.1271 600.244 45.23C600.481 46.3794 600.84 47.5053 601.316 48.5918C601.481 49.027 601.691 49.4473 601.941 49.8475C602.298 50.3065 602.611 50.7791 602.938 51.1976C603.594 51.9982 604.191 52.8371 604.725 53.7089" stroke="black" stroke-width="2" stroke-linejoin="bevel"/>
<path d="M606.347 62.2687C605.871 62.1742 604.978 61.9987 604.442 61.9447C603.934 61.8779 603.417 61.9483 602.953 62.1472C602.179 62.5418 601.443 62.9934 600.75 63.4974C599.974 63.9016 599.082 64.085 598.19 64.0239C597.186 63.9906 596.182 64.0953 595.213 64.3344C593.367 64.834 593.903 67.6963 592.593 68.7764C591.138 69.717 589.8 70.7991 588.604 72.0033C588.357 72.4038 588.079 72.7874 587.77 73.1509C586.818 74.0825 585.359 74.069 584.094 74.366C583.634 74.4891 583.159 74.5571 582.68 74.5686C582.024 74.5082 581.363 74.6093 580.766 74.8611C580.169 75.113 579.657 75.5064 579.286 75.9997C579.129 76.2189 578.96 76.4307 578.78 76.6343C578.601 76.7828 578.363 76.8098 578.199 76.9313" stroke="black" stroke-width="2" stroke-linejoin="bevel"/>
<path d="M579.346 40.6665C579.486 41.4186 579.882 42.1123 580.477 42.6512C580.804 43.0428 581.043 43.5288 581.325 44.0014C581.608 44.4739 581.638 44.3794 581.787 44.6089C581.936 44.8385 581.995 45.014 582.114 45.2165C582.412 45.8175 582.651 46.4409 582.829 47.0797C583.588 49.78 581.117 51.8187 581.459 54.411C581.593 55.5046 582.263 57.3408 581.549 58.4615C580.983 59.2851 580.06 59.9061 579.629 60.7702C579.327 61.2358 579.177 61.7696 579.197 62.3094C579.197 62.9979 579.197 63.6595 579.197 64.3751C579.172 65.6995 579.277 67.0233 579.509 68.331C579.509 68.4796 579.703 68.4931 579.748 68.6281C579.792 68.7631 579.748 69.0736 579.748 69.2761C579.748 69.4787 580.164 69.8837 580.298 70.1672C580.596 70.7208 580.656 71.2879 580.894 71.8414C581.132 72.395 581.206 72.9756 581.534 73.5696C581.706 73.9313 581.921 74.2753 582.174 74.5957" stroke="black" stroke-width="2" stroke-linejoin="bevel"/>
<path d="M522.499 95.118C522.856 95.7525 522.856 95.8336 523.63 96.0901C524.165 96.2802 524.666 96.5394 525.119 96.8597C526.038 97.4312 527.04 97.8855 528.096 98.2098C528.655 98.3774 529.201 98.5758 529.733 98.8039C530.267 99.0773 530.767 99.4033 531.222 99.776C531.572 100.082 531.968 100.341 532.398 100.546C533.065 100.627 533.74 100.627 534.407 100.546C535.532 100.437 536.619 100.11 537.593 99.587C538.303 99.3225 539.035 99.1059 539.781 98.9389L540.882 98.6824C541.016 98.6824 540.986 98.5204 541.195 98.4799C541.403 98.4394 541.597 98.5474 541.79 98.4799C541.984 98.4123 542.177 98.2503 542.475 98.1963C542.773 98.1423 543.085 98.1963 543.413 98.1963C543.629 98.0988 543.86 98.0306 544.097 97.9938C544.561 97.9376 545.019 97.8473 545.467 97.7238C546.107 97.5888 546.792 97.5753 547.447 97.4267C547.728 97.3387 548.017 97.271 548.31 97.2242C548.637 97.2242 548.816 97.0082 549.129 96.9542C549.424 96.9345 549.718 96.8939 550.007 96.8327C550.185 96.8327 550.453 96.5626 550.632 96.5086C551.168 96.3466 551.659 96.2926 552.21 96.1306C552.811 95.8997 553.398 95.6383 553.966 95.3475L554.755 95.1045C554.904 95.1045 554.859 94.9425 555.083 94.8885C555.306 94.8345 555.499 94.956 555.678 94.8885C556.184 94.7939 556.482 94.4159 556.869 94.1594C557.256 93.9029 557.271 94.0379 557.449 93.9163C557.648 93.7589 557.832 93.5874 558 93.4033C558.69 92.6875 559.22 91.8577 559.563 90.9595C559.92 90.1764 560.412 88.6238 561.409 88.2592C562.704 87.7597 563.463 88.6643 564.103 89.5014C564.844 90.2304 565.702 90.854 566.648 91.3511C567.119 91.6316 567.617 91.8712 568.137 92.0667L569.626 92.8362C570.138 93.0402 570.635 93.2748 571.114 93.5383C571.665 93.9028 572.245 94.2539 572.811 94.5644C573.245 94.8705 573.697 95.1545 574.166 95.415C574.344 95.415 574.627 95.523 574.806 95.604C575.071 95.7167 575.33 95.8429 575.58 95.9821C576.575 96.5118 577.327 97.3498 577.696 98.342C578.065 99.3342 578.027 100.414 577.589 101.383C577.423 101.867 577.303 102.364 577.232 102.868C577.232 103.03 577.068 103.232 577.009 103.435C576.977 103.698 576.851 103.944 576.651 104.137C576.317 104.448 575.93 104.707 575.505 104.907C575.059 105.177 574.806 105.649 574.389 105.946C574.21 106.081 573.942 106.122 573.749 106.257C573.57 106.396 573.406 106.55 573.257 106.716L572.111 107.742C571.308 108.534 570.663 109.448 570.206 110.442C569.695 111.187 568.917 111.749 568.003 112.035C567.512 112.238 567.006 112.305 566.515 112.481C566.06 112.686 565.593 112.866 565.115 113.021C564.832 113.021 564.505 113.021 564.252 113.129L563.463 113.318C563.017 113.426 562.451 113.615 561.975 113.764C560.417 114.279 558.798 114.628 557.152 114.803C554.74 115.03 552.361 115.483 550.052 116.153C549.664 116.275 549.411 116.572 549.069 116.72C548.727 116.869 548.459 116.95 548.131 117.125C547.66 117.4 547.162 117.635 546.643 117.827C546.047 118.071 545.512 118.422 544.946 118.678C544.38 118.935 543.844 119.016 543.323 119.245C541.645 119.882 539.906 120.379 538.128 120.73C537.667 120.852 537.22 121.014 536.744 121.122C536.268 121.23 535.732 121.122 535.256 121.23C535.032 121.23 534.958 121.459 534.735 121.513C534.354 121.554 533.969 121.554 533.589 121.513C531.549 121.513 529.674 122.296 527.634 122.283C526.775 122.343 525.911 122.279 525.074 122.094C524.309 121.983 523.567 121.769 522.871 121.459C522.312 121.092 521.833 120.634 521.457 120.109C521.055 119.556 521.219 118.989 521.04 118.368C520.862 117.746 520.877 117.017 520.624 116.261C520.37 115.505 519.983 114.574 519.611 113.737C519.001 112.386 518.465 111.036 517.914 109.578C517.613 108.703 517.443 107.794 517.408 106.878C517.274 105.878 517.274 104.867 517.408 103.867C518.116 102.092 519.029 100.391 520.132 98.7904C520.291 98.2848 520.582 97.8215 520.981 97.4402C521.125 97.3337 521.26 97.2162 521.383 97.0892C522.127 96.3196 522.157 95.3475 522.499 95.118Z" stroke="black" stroke-width="2" stroke-linejoin="bevel"/>
<path d="M573.109 94.1324C573.384 93.8976 573.723 93.7343 574.092 93.6598C575.12 93.4696 576.173 93.415 577.218 93.4978C577.713 93.5237 578.21 93.5237 578.706 93.4978C579.138 93.4204 579.551 93.2741 579.927 93.0657C580.297 92.8126 580.721 92.6316 581.171 92.534C581.622 92.4364 582.09 92.4244 582.547 92.4987V92.6337" stroke="black" stroke-width="2" stroke-linejoin="bevel"/>
<path d="M568.851 117.044C569.015 116.923 568.925 116.45 568.925 116.275V114.344C568.946 114.126 568.921 113.906 568.851 113.696C568.817 113.613 568.793 113.527 568.777 113.439C568.758 113.366 568.734 113.293 568.702 113.223C568.679 113.008 568.679 112.791 568.702 112.575C568.684 112.479 568.66 112.385 568.628 112.292C568.62 112.193 568.62 112.094 568.628 111.995C568.628 111.887 568.538 111.455 568.777 111.522" stroke="black" stroke-width="2" stroke-linejoin="bevel"/>
<path d="M574.195 105.919H574.106C573.942 106.392 574.448 107.026 574.761 107.364C575.252 107.904 575.803 108.403 576.25 108.971C576.443 109.2 576.636 109.403 576.83 109.619C577.024 109.835 577.128 110.105 577.336 110.321C577.768 110.766 578.095 111.293 578.527 111.738C578.934 112.27 579.387 112.771 579.881 113.237C580.05 113.378 580.229 113.509 580.417 113.629C580.641 113.777 580.879 113.858 581.117 114.007C581.817 114.412 582.457 114.898 583.112 115.357C583.249 115.431 583.374 115.522 583.484 115.627C583.633 115.775 583.633 115.924 583.737 116.086C583.841 116.248 583.841 116.18 583.886 116.234C583.932 116.326 583.972 116.421 584.005 116.518C584.005 116.626 584.109 116.869 584.273 116.896" stroke="black" stroke-width="2" stroke-linejoin="bevel"/>
<path d="M568.896 111.576C568.896 111.846 568.986 111.914 569.179 112.116L569.656 112.562C569.819 112.71 569.894 112.913 570.058 113.061C570.556 113.581 570.849 114.237 570.891 114.925C570.916 115.292 570.971 115.658 571.055 116.018C571.181 116.533 571.376 117.032 571.635 117.503C572.037 118.273 572.648 118.921 573.124 119.664C573.362 120.028 573.466 120.46 573.704 120.825C573.899 121.094 574.159 121.32 574.464 121.486C575.059 121.864 575.625 122.323 576.25 122.688C576.438 122.767 576.632 122.835 576.83 122.89C576.979 122.89 577.113 123.066 577.277 123.133L578.289 123.525L579.004 123.863C579.199 123.975 579.388 124.097 579.569 124.227C579.959 124.486 580.331 124.766 580.686 125.064C580.849 125.199 580.939 125.294 581.177 125.294C581.415 125.294 581.876 125.388 581.921 125.132" stroke="black" stroke-width="2" stroke-linejoin="bevel"/>
<path d="M452.375 256.542C452.42 256.768 452.558 256.971 452.762 257.109C452.814 256.403 452.814 255.695 452.762 254.989C452.507 254.4 452.156 253.849 451.72 253.355C451.331 252.932 451.033 252.447 450.842 251.924C450.633 250.952 451.02 250.776 451.854 250.412C454.548 249.224 457.436 248.117 460.681 248.63C461.486 248.814 462.308 248.936 463.137 248.994C464.075 248.994 464.834 249.345 465.786 249.332H468.242C468.689 249.332 469.136 249.332 469.567 249.332C469.922 249.288 470.268 249.197 470.594 249.062C471.026 248.954 471.428 249.062 471.86 248.994C472.177 248.906 472.482 248.784 472.768 248.63C473.511 248.424 474.283 248.315 475.06 248.306C475.738 248.138 476.43 248.021 477.129 247.955H479.778C481.445 247.934 483.1 247.693 484.691 247.239C485.554 247.01 485.733 246.28 486.477 245.97C487.159 245.753 487.862 245.59 488.576 245.484C488.897 245.338 489.245 245.247 489.603 245.214C489.975 245.214 490.362 245.214 490.734 245.214C491.701 245.214 492.461 245.497 493.383 245.551C494.069 245.705 494.765 245.818 495.467 245.889C496.45 245.889 496.956 246.213 497.923 246.24C499.62 246.307 501.317 246.24 503.014 246.24C504.286 246.175 505.553 246.049 506.81 245.862C507.882 245.767 509.117 245.713 510.189 245.565C510.823 245.399 511.47 245.277 512.124 245.2C514.118 245.2 515.979 244.876 517.989 244.863C518.92 244.829 519.849 244.977 520.713 245.295C520.966 245.389 521.263 245.632 521.546 245.727C521.829 245.821 522.32 245.727 522.707 245.875C523.094 246.024 523.213 246.294 523.526 246.51C523.865 246.666 524.213 246.805 524.568 246.929C525.208 247.212 525.818 247.523 526.458 247.779C527.098 248.036 528.245 248.387 529.108 248.738C529.592 248.889 530.09 248.997 530.596 249.062C530.715 249.062 530.745 249.264 530.909 249.291C531.073 249.318 531.534 249.291 531.832 249.291C532.13 249.291 532.368 249.588 532.755 249.669C533.25 249.708 533.748 249.708 534.243 249.669C535.107 249.793 535.991 249.705 536.804 249.413C537.595 248.961 538.452 248.612 539.349 248.373C539.885 248.252 542.088 247.955 541.597 248.927" stroke="black" stroke-width="2" stroke-linejoin="bevel"/>
<path d="M517.677 132.666C517.513 131.545 518.763 130.465 519.597 129.776C519.924 129.493 520.282 129.196 520.579 128.885C520.792 128.642 520.947 128.362 521.034 128.062C521.121 127.763 521.138 127.45 521.085 127.143C521.085 125.901 521.085 124.659 521.085 123.417C521.085 122.809 521.085 122.215 521.085 121.608C520.987 120.803 521.186 119.991 521.651 119.299" stroke="black" stroke-width="2" stroke-linejoin="bevel"/>
<path d="M517.959 131.896C518.552 131.895 519.135 131.76 519.656 131.504C520.356 131.221 520.534 131.504 520.832 131.99C521.137 132.842 521.605 133.637 522.216 134.34C523.333 135.285 523.913 134.34 524.553 133.449C524.791 133.111 524.985 132.504 525.312 132.274C525.64 132.045 526.652 132.153 527.173 132.153C527.51 132.126 527.848 132.126 528.185 132.153C528.408 132.153 528.483 132.382 528.721 132.436C529.384 132.504 530.053 132.504 530.716 132.436C531.368 132.458 532.009 132.277 532.532 131.923C533.064 131.546 533.733 131.363 534.407 131.41C535.687 131.41 536.655 131.666 537.95 131.666H538.798C539.067 131.696 539.328 131.764 539.572 131.869C540.098 132.047 540.65 132.152 541.21 132.18C541.846 132.109 542.492 132.188 543.085 132.409C543.829 132.747 543.77 132.99 543.755 133.759C543.777 134.105 543.777 134.453 543.755 134.799C543.755 135.136 543.517 135.258 543.442 135.555C543.368 135.852 543.442 136.095 543.323 136.338C543.226 136.673 543.176 137.018 543.174 137.364" stroke="black" stroke-width="2" stroke-linejoin="bevel"/>
<path d="M535.539 121.095C536.671 121.541 537.633 122.278 538.308 123.214C538.635 123.673 538.918 124.214 539.29 124.646C539.662 125.078 540.005 125.253 540.079 125.861C540.172 126.355 540.1 126.863 539.871 127.319C539.588 127.859 539.245 128.075 539.216 128.669C539.186 128.97 539.186 129.273 539.216 129.574C539.274 129.768 539.349 129.957 539.439 130.141C539.546 130.689 539.571 131.247 539.513 131.801V131.68" stroke="black" stroke-width="2" stroke-linejoin="bevel"/>
<path d="M540.645 131.68C540.347 132.571 541.612 132.112 541.999 131.869C542.481 131.593 542.93 131.271 543.339 130.91C544.01 130.272 544.742 129.689 545.527 129.169C545.94 128.936 546.368 128.724 546.807 128.534C547.521 128.156 547.745 127.859 548.578 127.832C549.412 127.805 549.829 127.562 550.558 127.562C551.287 127.562 552.047 127.562 552.687 127.562C554.056 127.562 555.098 126.981 556.512 127.049C557.926 127.116 558.79 128.102 559.802 128.588C560.843 129.229 561.926 129.811 563.047 130.33C563.562 130.537 564.02 130.846 564.386 131.234C565.056 131.815 564.818 132.274 565.086 132.976C565.409 133.553 565.873 134.056 566.441 134.448C566.889 134.934 567.292 135.453 567.646 136C568.018 136.446 568.48 136.675 568.748 137.175C569.043 137.695 569.239 138.256 569.328 138.836H569.566" stroke="black" stroke-width="2" stroke-linejoin="bevel"/>
</g>
<defs>
<clipPath id="clip0_201_1330">
<rect width="630" height="379" fill="white"/>
</clipPath>
</defs>
</svg>
