<svg width="22" height="21" viewBox="0 0 22 21" fill="none" xmlns="http://www.w3.org/2000/svg">
<path d="M4.0166 21H10.8662V13.5352H8.40527V11.0742H10.8662V7.99805C10.8662 6.30183 12.2462 4.92188 13.9424 4.92188H17.0186V7.38281H14.5576C13.8791 7.38281 13.3271 7.93476 13.3271 8.61328V11.0742H16.9075L16.4974 13.5352H13.3271V21H18.8643C20.5605 21 21.9404 19.62 21.9404 17.9238V3.07617C21.9404 1.37995 20.5605 0 18.8643 0H4.0166C2.32038 0 0.94043 1.37995 0.94043 3.07617V17.9238C0.94043 19.62 2.32038 21 4.0166 21ZM2.1709 3.07617C2.1709 2.05847 2.9989 1.23047 4.0166 1.23047H18.8643C19.882 1.23047 20.71 2.05847 20.71 3.07617V17.9238C20.71 18.9415 19.882 19.7695 18.8643 19.7695H14.5576V14.7656H17.5397L18.3601 9.84375H14.5576V8.61328H18.249V3.69141H13.9424C11.5676 3.69141 9.63574 5.62331 9.63574 7.99805V9.84375H7.1748V14.7656H9.63574V19.7695H4.0166C2.9989 19.7695 2.1709 18.9415 2.1709 17.9238V3.07617Z" fill="white"/>
</svg>
