<svg width="21" height="21" viewBox="0 0 21 21" fill="none" xmlns="http://www.w3.org/2000/svg">
<g clip-path="url(#clip0_299_125)">
<path d="M3.07617 21H17.9238C19.62 21 21 19.62 21 17.9238V3.07617C21 1.37995 19.62 0 17.9238 0H3.07617C1.37995 0 0 1.37995 0 3.07617V17.9238C0 19.62 1.37995 21 3.07617 21ZM1.23047 3.07617C1.23047 2.05847 2.05847 1.23047 3.07617 1.23047H17.9238C18.9415 1.23047 19.7695 2.05847 19.7695 3.07617V17.9238C19.7695 18.9415 18.9415 19.7695 17.9238 19.7695H3.07617C2.05847 19.7695 1.23047 18.9415 1.23047 17.9238V3.07617Z" fill="white"/>
<path d="M10.5 16.0371C13.5531 16.0371 16.0371 13.5531 16.0371 10.5C16.0371 7.4469 13.5531 4.96289 10.5 4.96289C7.4469 4.96289 4.96289 7.4469 4.96289 10.5C4.96289 13.5531 7.4469 16.0371 10.5 16.0371ZM10.5 6.19336C12.8747 6.19336 14.8066 8.12526 14.8066 10.5C14.8066 12.8747 12.8747 14.8066 10.5 14.8066C8.12526 14.8066 6.19336 12.8747 6.19336 10.5C6.19336 8.12526 8.12526 6.19336 10.5 6.19336Z" fill="white"/>
<path d="M16.6523 6.19336C17.67 6.19336 18.498 5.36536 18.498 4.34766C18.498 3.32996 17.67 2.50195 16.6523 2.50195C15.6346 2.50195 14.8066 3.32996 14.8066 4.34766C14.8066 5.36536 15.6346 6.19336 16.6523 6.19336ZM16.6523 3.73242C16.9915 3.73242 17.2676 4.00848 17.2676 4.34766C17.2676 4.68684 16.9915 4.96289 16.6523 4.96289C16.3132 4.96289 16.0371 4.68684 16.0371 4.34766C16.0371 4.00848 16.3132 3.73242 16.6523 3.73242Z" fill="white"/>
</g>
<defs>
<clipPath id="clip0_299_125">
<rect width="21" height="21" fill="white"/>
</clipPath>
</defs>
</svg>
